<?xml version="1.0"?>
<svg xmlns="http://www.w3.org/2000/svg" xmlns:xlink="http://www.w3.org/1999/xlink" xmlns:svgjs="http://svgjs.com/svgjs" version="1.1" width="512" height="512" x="0" y="0" viewBox="0 0 511.96 511.96" style="enable-background:new 0 0 512 512" xml:space="preserve" class=""><g><g xmlns="http://www.w3.org/2000/svg"><path d="m231.098 159.098c0-4.143-3.358-7.5-7.5-7.5s-7.5 3.357-7.5 7.5v9.844c0 4.143 3.358 7.5 7.5 7.5s7.5-3.357 7.5-7.5z" fill="#09dca4" data-original="#000000" style="" class=""/><path d="m288.215 151.598c-4.142 0-7.5 3.357-7.5 7.5v9.844c0 4.143 3.358 7.5 7.5 7.5s7.5-3.357 7.5-7.5v-9.844c0-4.143-3.358-7.5-7.5-7.5z" fill="#09dca4" data-original="#000000" style="" class=""/><path d="m274.789 202.224c-4.142 0-7.5 3.357-7.5 7.5 0 6.236-5.073 11.31-11.309 11.31s-11.309-5.073-11.309-11.31c0-4.143-3.358-7.5-7.5-7.5s-7.5 3.357-7.5 7.5c0 14.507 11.802 26.31 26.309 26.31s26.309-11.803 26.309-26.31c0-4.143-3.358-7.5-7.5-7.5z" fill="#09dca4" data-original="#000000" style="" class=""/><path d="m255.82 97.173c4.142 0 7.5-3.357 7.5-7.5v-12.546h12.547c4.142 0 7.5-3.357 7.5-7.5s-3.358-7.5-7.5-7.5h-12.547v-12.547c0-4.143-3.358-7.5-7.5-7.5s-7.5 3.357-7.5 7.5v12.547h-12.546c-4.142 0-7.5 3.357-7.5 7.5s3.358 7.5 7.5 7.5h12.546v12.546c0 4.142 3.358 7.5 7.5 7.5z" fill="#09dca4" data-original="#000000" style="" class=""/><path d="m399.693 324.196-92.333-29.077v-29.837c19.011-14.036 31.37-36.589 31.37-61.98v-6.597h7.561c15.658 0 28.397-12.739 28.397-28.397v-15.658c0-11.996-7.48-22.271-18.018-26.425v-40.255c0-4.143-3.358-7.5-7.5-7.5s-7.5 3.357-7.5 7.5v38.28h-171.42v-73.25c0-5.926 2.405-11.726 6.601-15.915l13.512-13.502c4.261-4.245 9.91-6.583 15.907-6.583h99.41c5.926 0 11.722 2.401 15.907 6.593l13.494 13.495c4.249 4.242 6.589 9.89 6.589 15.902v2.29c0 4.143 3.358 7.5 7.5 7.5s7.5-3.357 7.5-7.5v-2.29c0-10.024-3.903-19.442-10.987-26.513l-13.485-13.486c-6.973-6.985-16.638-10.991-26.518-10.991h-99.41c-9.993 0-19.402 3.891-26.501 10.965l-13.518 13.508c-6.991 6.978-11.001 16.647-11.001 26.527v75.242c-10.516 4.165-17.976 14.428-17.976 26.408v15.658c0 15.658 12.739 28.397 28.397 28.397h7.559v6.597c0 25.391 12.359 47.944 31.37 61.98v29.837l-92.815 29.24c-20.423 6.658-34.145 25.566-34.145 47.051v8.03c0 4.143 3.358 7.5 7.5 7.5s7.5-3.357 7.5-7.5v-8.03c0-14.973 9.562-28.149 23.723-32.767l23.378-7.365v42.753c-9.016 3.118-15.511 11.686-15.511 21.749 0 12.688 10.323 23.011 23.011 23.011s23.011-10.322 23.011-23.011c0-10.063-6.495-18.631-15.511-21.749v-47.478l55.939-17.623 32.584 24.535-35.498 25.132c-1.986 1.406-3.167 3.688-3.167 6.121v132.242h-49.838v-39.056c0-4.143-3.358-7.5-7.5-7.5s-7.5 3.357-7.5 7.5v39.056h-47.121v-84.84c0-4.143-3.358-7.5-7.5-7.5s-7.5 3.357-7.5 7.5v92.34c0 4.143 3.358 7.5 7.5 7.5h216.62c4.142 0 7.5-3.357 7.5-7.5s-3.358-7.5-7.5-7.5h-82.16v-128.362l81.68-59.667 40.387 12.718v20.776c-17.685 3.501-31.062 19.127-31.062 37.825v31.063c0 4.143 3.358 7.5 7.5 7.5h15.531c4.142 0 7.5-3.357 7.5-7.5s-3.358-7.5-7.5-7.5h-8.031v-23.563c0-12.992 10.57-23.563 23.563-23.563s23.562 10.57 23.562 23.563v23.54h-7.192c-4.142 0-7.5 3.357-7.5 7.5s3.358 7.5 7.5 7.5h14.692c4.142 0 7.5-3.357 7.5-7.5v-31.04c0-18.697-13.377-34.324-31.063-37.825v-16.052l38.52 12.13c14.435 4.548 24.134 17.772 24.134 32.907v125.55h-44.634v-39.055c0-4.143-3.358-7.5-7.5-7.5s-7.5 3.357-7.5 7.5v39.055h-25.237c-4.142 0-7.5 3.357-7.5 7.5s3.358 7.5 7.5 7.5h92.37c4.142 0 7.5-3.357 7.5-7.5v-133.05c0-21.715-13.915-40.688-34.627-47.214zm-60.963-184.944h7.561c7.387 0 13.397 6.01 13.397 13.397v15.658c0 7.388-6.01 13.397-13.397 13.397h-7.561zm-183.477 256.528c0 4.417-3.594 8.011-8.011 8.011s-8.011-3.594-8.011-8.011 3.594-8.011 8.011-8.011c4.417.001 8.011 3.594 8.011 8.011zm17.977-214.075h-7.559c-7.387 0-13.397-6.01-13.397-13.397v-15.658c0-7.388 6.01-13.397 13.397-13.397h7.559zm119.13 115.143-36.38 27.412-36.38-27.412v-22.912c9.396 4.092 19.754 6.375 30.64 6.375h11.48c10.885 0 21.243-2.283 30.64-6.375zm-30.64-31.536h-11.48c-34.192 0-62.01-27.817-62.01-62.01l.002-64.052h135.498v64.052c0 34.192-27.817 62.01-62.01 62.01z" fill="#09dca4" data-original="#000000" style="" class=""/></g></g></svg>
