<?xml version="1.0" encoding="utf-8"?>
<!-- Generator: Adobe Illustrator 22.1.0, SVG Export Plug-In . SVG Version: 6.00 Build 0)  -->
<svg version="1.1" id="Layer_1" xmlns="http://www.w3.org/2000/svg" xmlns:xlink="http://www.w3.org/1999/xlink" x="0px" y="0px"
	 viewBox="0 0 500 500" style="enable-background:new 0 0 500 500;" xml:space="preserve">
<style type="text/css">
	.st0{clip-path:url(#SVGID_2_);fill:#09dca4;}
	.st1{fill:#A3C0FF;}
	.st2{fill:#D8E3FF;}
	.st3{fill-rule:evenodd;clip-rule:evenodd;fill:#F59493;}
	.st4{fill-rule:evenodd;clip-rule:evenodd;fill:#FFFFFF;}
	.st5{opacity:0.31;fill:#2E4787;}
	.st6{fill:#F59493;}
	.st7{fill:#436AE6;}
	.st8{fill:#D67474;}
	.st9{fill:#0F1B61;}
	.st10{fill:#142585;}
	.st11{fill:#4D85FF;}
	.st12{fill:#FFFFFF;}
	.st13{fill:none;stroke:#9EB9DB;stroke-width:2;stroke-linecap:round;stroke-linejoin:round;stroke-miterlimit:10;}
	.st14{fill:none;stroke:#142585;stroke-width:5;stroke-linecap:round;stroke-linejoin:round;stroke-miterlimit:10;}
	.st15{fill:#BFD4FF;}
	.st16{fill:none;stroke:#223A7A;stroke-width:5.4704;stroke-linecap:round;stroke-linejoin:round;stroke-miterlimit:10;}
	.st17{fill:#FBFBFF;}
	
		.st18{fill-rule:evenodd;clip-rule:evenodd;fill:none;stroke:#0065FF;stroke-width:0.9997;stroke-linecap:round;stroke-linejoin:round;stroke-miterlimit:10;}
	.st19{fill:#3570F0;}
	.st20{fill:#2D52B8;}
	.st21{fill:#FFACAB;}
	.st22{fill:#E37B7B;}
	.st23{fill:#1ADBCF;}
	.st24{opacity:0.18;}
	.st25{fill:none;stroke:#FFFFFF;stroke-width:0.9459;stroke-linecap:round;stroke-linejoin:round;stroke-miterlimit:10;}
	.st26{opacity:0.28;fill:#FFFFFF;}
	.st27{clip-path:url(#SVGID_4_);fill:#09dca4;}
	.st28{clip-path:url(#SVGID_6_);fill:#09dca4;}
	.st29{clip-path:url(#SVGID_8_);fill:#09dca4;}
	.st30{fill:#173885;}
	.st31{fill:#385BD6;}
	.st32{fill:#C2D5FF;}
	.st33{fill:#C0CAE3;}
	.st34{fill:#4A74FF;}
	.st35{fill:#122175;}
	.st36{fill:#E6EEFF;}
	.st37{fill:#183180;}
	.st38{fill:#99B2E8;}
	.st39{fill:#8EA3D4;}
	.st40{fill:#C9E4FF;}
	.st41{fill:none;stroke:#E38A78;stroke-width:0.8295;stroke-linecap:round;stroke-linejoin:round;stroke-miterlimit:10;}
	.st42{fill:none;stroke:#9EB9DB;stroke-linecap:round;stroke-linejoin:round;stroke-miterlimit:10;}
	.st43{fill:none;stroke:#FFFFFF;stroke-width:1.5636;stroke-linecap:round;stroke-linejoin:round;stroke-miterlimit:10;}
	.st44{fill:#A3BEF7;}
	.st45{fill:none;stroke:#142585;stroke-width:2;stroke-linecap:round;stroke-linejoin:round;stroke-miterlimit:10;}
	.st46{fill:none;stroke:#223A7A;stroke-width:2.3829;stroke-linecap:round;stroke-linejoin:round;stroke-miterlimit:10;}
	.st47{fill:none;stroke:#142585;stroke-linecap:round;stroke-linejoin:round;stroke-miterlimit:10;}
	.st48{fill:#F0F5FF;}
	.st49{opacity:0.28;}
	.st50{opacity:0.4;fill:#A8B2E5;}
	.st51{opacity:0.31;fill:#476DCF;}
	.st52{fill:url(#SVGID_9_);}
	.st53{fill:#3B6BD9;}
	.st54{opacity:0.27;fill:#FCFEFF;}
	.st55{fill:#2F6AD6;}
	.st56{fill:#2B60C2;}
	.st57{fill:#6094F5;}
	.st58{fill:#4C87F5;}
	.st59{fill:#85B0FF;}
	.st60{fill:#B8D1FF;}
	.st61{fill:#99B8FF;}
	.st62{fill:#356DE6;}
	.st63{fill:#CFDEFF;}
	.st64{fill:#3071FF;}
	.st65{fill:#FFFFFF;stroke:#35519C;stroke-width:0.5746;stroke-miterlimit:10;}
	.st66{fill:#0E2E82;}
	.st67{fill:#FFFFFF;stroke:#35519C;stroke-width:0.5911;stroke-miterlimit:10;}
	.st68{fill:#3E62D4;}
	.st69{fill:none;stroke:#B8CCFF;stroke-width:3.6594;stroke-linecap:round;stroke-linejoin:round;stroke-miterlimit:10;}
	.st70{fill:#3072FF;}
	.st71{fill:none;stroke:#FFFFFF;stroke-width:2.0446;stroke-linecap:round;stroke-linejoin:round;stroke-miterlimit:10;}
	.st72{fill:url(#SVGID_10_);}
	.st73{fill:#ED9845;}
	.st74{fill:#AA5509;}
	.st75{opacity:0.37;fill:#AA5509;}
	.st76{fill:#FFA664;}
	.st77{fill:#D37B33;}
	.st78{opacity:0.18;fill:#FFE0C9;}
	.st79{fill:#EBF5FF;}
	.st80{fill:#EB984E;}
	.st81{fill:#FFAC61;}
	.st82{fill:#214BB8;}
	.st83{fill:#3864D6;}
	.st84{fill:#E1EAF4;}
	.st85{fill:#A1B8ED;}
	.st86{fill:#A6BEF5;}
	.st87{fill:#DBE7FF;}
	.st88{fill:#2F81EC;}
	.st89{fill:none;stroke:#2C4482;stroke-width:1.5916;stroke-linecap:round;stroke-linejoin:round;stroke-miterlimit:10;}
	.st90{fill-rule:evenodd;clip-rule:evenodd;fill:#A1BFFF;}
	.st91{fill-rule:evenodd;clip-rule:evenodd;fill:#F0F5FF;}
	
		.st92{fill-rule:evenodd;clip-rule:evenodd;fill:none;stroke:#223A7A;stroke-width:1.7967;stroke-linecap:round;stroke-miterlimit:10;}
	.st93{fill-rule:evenodd;clip-rule:evenodd;fill:#63FFF5;}
	
		.st94{fill-rule:evenodd;clip-rule:evenodd;fill:none;stroke:#FCFEFF;stroke-width:3.9635;stroke-linecap:round;stroke-linejoin:round;stroke-miterlimit:10;}
	.st95{fill:#2651DE;}
	.st96{fill:#A1BFFF;}
	.st97{fill:#2D69ED;}
	.st98{opacity:0.73;fill:#3171FF;}
	.st99{fill:#223A7A;}
	.st100{fill:none;stroke:#FFFFFF;stroke-width:1.2752;stroke-linecap:round;stroke-linejoin:round;stroke-miterlimit:10;}
	.st101{fill:#63FFF5;}
	
		.st102{fill-rule:evenodd;clip-rule:evenodd;fill:none;stroke:#FFFFFF;stroke-width:1.247;stroke-linecap:round;stroke-miterlimit:10;}
	.st103{fill:none;stroke:#223A7A;stroke-width:2.1314;stroke-linecap:round;stroke-miterlimit:10;}
	.st104{fill:#2B41E3;}
	.st105{fill:#F6F7FA;}
</style>
<g>
	<defs>
		<rect id="SVGID_3_" y="0" width="500" height="500"/>
	</defs>
	<clipPath id="SVGID_2_">
		<use xlink:href="#SVGID_3_"  style="overflow:visible;"/>
	</clipPath>
	<path class="st0" d="M-13.1-10.3c0,0,198.6-49.4,247.6,100.6s250.3,265.4,252.4,419.8l-488.6,0.8c-6.3,0-11.4-6.7-11.4-15V-10.3z"
		/>
</g>
<path class="st26" d="M24,181.5c0,2.2-1.8,4-4,4s-4-1.8-4-4c0-2.2,1.8-4,4-4S24,179.3,24,181.5z"/>
<path class="st25" d="M112.7,113.3c2.9,0,33.7,0,33.7,0"/>
<path class="st25" d="M161.1,216.7c2.9,0,33.7,0,33.7,0"/>
<path class="st25" d="M268.6,397.9c2.9,0,33.7,0,33.7,0"/>
<path class="st26" d="M291.5,364.3c0,2.1-1.7,3.7-3.7,3.7c-2.1,0-3.7-1.7-3.7-3.7s1.7-3.7,3.7-3.7
	C289.9,360.6,291.5,362.2,291.5,364.3z"/>
<path class="st26" d="M360.7,242.6c0,2.1-1.7,3.7-3.7,3.7c-2.1,0-3.7-1.7-3.7-3.7s1.7-3.7,3.7-3.7
	C359,238.9,360.7,240.6,360.7,242.6z"/>
<circle class="st26" cx="272.3" cy="131.2" r="3.7"/>
<path class="st26" d="M82.1,320.2c0,2.1-1.7,3.7-3.7,3.7c-2.1,0-3.7-1.7-3.7-3.7c0-2.1,1.7-3.7,3.7-3.7
	C80.4,316.5,82.1,318.1,82.1,320.2z"/>
<g>
	<path class="st87" d="M205.9,195.2l-49.7-16.6c-5-1.7-7.8-7.2-6.1-12.2l13.3-40c1.7-5,7.2-7.8,12.2-6.1l49.7,16.6
		c5,1.7,7.8,7.2,6.1,12.2l-13.3,40C216.5,194.2,211,196.9,205.9,195.2z"/>
	<path class="st88" d="M177.5,135.6c-0.8,2.4-3.4,3.7-5.9,2.9c-2.4-0.8-3.7-3.4-2.9-5.9c0.8-2.4,3.4-3.7,5.9-2.9
		C177,130.5,178.3,133.1,177.5,135.6z"/>
	<path class="st88" d="M171.9,152.2c-0.8,2.4-3.4,3.7-5.9,2.9c-2.4-0.8-3.7-3.4-2.9-5.9c0.8-2.4,3.4-3.7,5.9-2.9
		C171.4,147.2,172.8,149.8,171.9,152.2z"/>
	<path class="st88" d="M166.4,168.9c-0.8,2.4-3.4,3.7-5.9,2.9c-2.4-0.8-3.7-3.4-2.9-5.9c0.8-2.4,3.4-3.7,5.9-2.9
		S167.2,166.4,166.4,168.9z"/>
	<path class="st88" d="M199.7,143c-0.8,2.4-3.4,3.7-5.9,2.9c-2.4-0.8-3.7-3.4-2.9-5.9c0.8-2.4,3.4-3.7,5.9-2.9
		C199.2,137.9,200.5,140.5,199.7,143z"/>
	<path class="st88" d="M194.1,159.6c-0.8,2.4-3.4,3.7-5.9,2.9c-2.4-0.8-3.7-3.4-2.9-5.9c0.8-2.4,3.4-3.7,5.9-2.9
		C193.6,154.6,194.9,157.2,194.1,159.6z"/>
	<path class="st88" d="M188.6,176.3c-0.8,2.4-3.4,3.7-5.9,2.9c-2.4-0.8-3.7-3.4-2.9-5.9c0.8-2.4,3.4-3.7,5.9-2.9
		C188.1,171.2,189.4,173.8,188.6,176.3z"/>
	<path class="st88" d="M221.9,150.4c-0.8,2.4-3.4,3.7-5.9,2.9c-2.4-0.8-3.7-3.4-2.9-5.9c0.8-2.4,3.4-3.7,5.9-2.9
		C221.4,145.3,222.7,147.9,221.9,150.4z"/>
	<path class="st88" d="M216.3,167c-0.8,2.4-3.4,3.7-5.9,2.9c-2.4-0.8-3.7-3.4-2.9-5.9c0.8-2.4,3.4-3.7,5.9-2.9
		C215.8,162,217.1,164.6,216.3,167z"/>
	<path class="st88" d="M210.7,183.7c-0.8,2.4-3.4,3.7-5.9,2.9c-2.4-0.8-3.7-3.4-2.9-5.9c0.8-2.4,3.4-3.7,5.9-2.9
		C210.2,178.6,211.6,181.2,210.7,183.7z"/>
	<line class="st89" x1="185.4" y1="132" x2="170.9" y2="175.3"/>
	<line class="st89" x1="208.5" y1="139.7" x2="194.1" y2="183"/>
</g>
<path class="st90" d="M228.6,329h89.4c10.9,0,19.8-8.8,19.8-19.8V280c0-10.9-8.8-19.8-19.8-19.8h-89.4c-10.9,0-19.8,8.8-19.8,19.8
	v29.3C208.9,320.2,217.7,329,228.6,329z"/>
<path class="st91" d="M166,298.1L166,298.1c-0.8-2.2-1.2-4.6-1.2-7.1v-31.8c0-11.9,9.6-21.5,21.5-21.5h108.3
	c11.9,0,21.5,9.6,21.5,21.5V291c0,11.9-9.6,21.5-21.5,21.5H186.3l-19.1,10.4c-2.9,1.6-6.3-0.9-5.6-4.2L166,298.1z"/>
<line class="st92" x1="300.4" y1="265" x2="178" y2="265"/>
<line class="st92" x1="300.4" y1="284.3" x2="214.7" y2="284.3"/>
<ellipse transform="matrix(0.9863 -0.1648 0.1648 0.9863 -28.791 52.2483)" class="st93" cx="300.4" cy="199.6" rx="26.1" ry="26.1"/>
<polyline class="st94" points="290,197.6 299.1,210.9 310.9,188.3 "/>
<g>
	<path class="st12" d="M351.3,365.8c-4.6,3.7-11.4,2.9-15.1-1.7c-3.7-4.6-2.9-11.4,1.7-15.1c4.6-3.7,11.4-2.9,15.1,1.7
		C356.7,355.4,355.9,362.1,351.3,365.8z"/>
	<path class="st81" d="M351.3,365.8c-4.6,3.7-11.4,2.9-15.1-1.7l16.8-13.3C356.7,355.4,355.9,362.1,351.3,365.8z"/>
</g>
<g>
	<path class="st95" d="M98.7,145L98.7,145c-3.7,1.8-8.1,0.3-9.9-3.4L82.2,128c-1.8-3.7-0.3-8.1,3.4-9.9l0,0c3.7-1.8,8.1-0.3,9.9,3.4
		l6.6,13.5C103.9,138.7,102.4,143.2,98.7,145z"/>
	<path class="st12" d="M85.3,134.4l-3.1-6.4c-1.8-3.7-0.3-8.1,3.4-9.9l0,0c3.7-1.8,8.1-0.3,9.9,3.4l3.1,6.4L85.3,134.4z"/>
</g>
<polygon class="st48" points="392,386.2 264.4,425.8 288.4,499.8 430.6,499.8 "/>
<polygon class="st96" points="383.2,407.1 306.9,430.4 303.9,423.3 380.8,399.8 "/>
<polygon class="st96" points="387.5,421.2 316.5,442.8 314.9,438.6 386.1,416.9 "/>
<path class="st97" d="M300.7,449.5l3.9-13.9l-3.7,1.3l-1.8,7.1c-0.3,1.3-0.6,2.4-0.9,4l-0.2,0.1c-0.1-0.1-0.1-0.1-0.2-0.2l0.4-0.1
	l-6.9-5l-2.1-1.7l-0.1,0.1l-1-0.8c3.5-2.1,5.3-5.2,4.1-8.7c-1.5-4.7-6.1-4.9-11.7-2.9l-8.6,3.1l7.3,22.7l3.5-1.3l-3.1-9.6l5-1.8
	l8.6,6.4l3.2,2.4l-4.2,14.7l3.7-1.3l2-7.6c0.3-1.4,0.7-2.8,1-4.4l0.2-0.1c1.3,1.1,2.5,1.9,3.5,2.8l6,4.7l3.9-1.4L300.7,449.5z
	 M283.4,439.9l-4.6,1.7l-2.7-8.5l4.6-1.7c4.3-1.6,7-1.3,8,1.6C289.6,436,287.7,438.4,283.4,439.9z"/>
<g>
	<g>
		<path class="st98" d="M260.4,499.8l-155.1,0l0-120.6c0-15.9,12.9-28.7,28.8-28.7l97.7,0c15.9,0,28.7,12.9,28.7,28.8L260.4,499.8z"
			/>
		<path class="st48" d="M244.3,499.8l-155.2,0l0-120.5c0-15.9,12.9-28.7,28.8-28.7l97.7,0c15.9,0,28.7,12.9,28.7,28.8V499.8z"/>
		<polygon class="st11" points="230.8,499.8 102.5,499.8 102.5,372.3 230.8,372.3 		"/>
		<rect x="102.5" y="372.5" class="st99" width="128.3" height="22.6"/>
		<line class="st100" x1="111.4" y1="378" x2="123.2" y2="378"/>
		<line class="st100" x1="111.4" y1="383.9" x2="123.2" y2="383.9"/>
		<line class="st100" x1="111.4" y1="389.7" x2="123.2" y2="389.8"/>
		<g>
			
				<ellipse transform="matrix(0.407 -0.9134 0.9134 0.407 -312.6704 377.6173)" class="st101" cx="134.5" cy="429.6" rx="24.9" ry="24.9"/>
			<path class="st12" d="M134.5,443.2L134.5,443.2c-2.2,0-4.1-1.8-4.1-4.1l0-19.1c0-2.2,1.8-4.1,4.1-4.1l0,0c2.2,0,4.1,1.8,4.1,4.1
				l0,19.1C138.5,441.4,136.7,443.2,134.5,443.2z"/>
			<path class="st12" d="M120.9,429.6L120.9,429.6c0-2.2,1.8-4.1,4.1-4.1l19.1,0c2.2,0,4.1,1.8,4.1,4.1v0c0,2.2-1.8,4.1-4.1,4.1
				l-19.1,0C122.7,433.7,120.9,431.8,120.9,429.6z"/>
		</g>
		<line class="st102" x1="163.9" y1="429.5" x2="218.3" y2="429.5"/>
		<line class="st102" x1="163.9" y1="411.8" x2="218.3" y2="411.8"/>
		<line class="st102" x1="163.9" y1="445.3" x2="202" y2="445.3"/>
	</g>
	<line class="st103" x1="143.4" y1="360.2" x2="191.1" y2="360.2"/>
</g>
<g>
	<path class="st48" d="M107.4,226.6l-6.9,1.4c-5,1-9.9-2.2-10.9-7.2l-5-24.6c-1-5,2.2-9.9,7.2-10.9l6.9-1.4c5-1,9.9,2.2,10.9,7.2
		l5,24.6C115.6,220.7,112.4,225.6,107.4,226.6z"/>
	<path class="st104" d="M111,190.8l-27.8,5.7c-2.3,0.5-4.5-1-4.9-3.3l-0.6-3.1c-0.5-2.3,1-4.5,3.3-4.9l27.8-5.7
		c2.3-0.5,4.5,1,4.9,3.3l0.6,3.1C114.7,188.1,113.2,190.3,111,190.8z"/>
	<path class="st48" d="M130.3,285.5l-25.7,5.5c-6.4,1.4-12.8-2.8-14.2-9.2l-13.2-61.7c-1.4-6.4,2.8-12.8,9.2-14.2l25.7-5.5
		c6.4-1.4,12.8,2.8,14.2,9.2l13.2,61.7C140.9,277.7,136.7,284.1,130.3,285.5z"/>
	
		<rect x="85.3" y="234" transform="matrix(0.9777 -0.2098 0.2098 0.9777 -51.1479 28.8509)" class="st105" width="50.3" height="43"/>
	
		<rect x="84.4" y="245" transform="matrix(0.9777 -0.2098 0.2098 0.9777 -51.4876 26.0334)" class="st81" width="25.1" height="21.5"/>
	<rect x="86" y="199.3" transform="matrix(0.9777 -0.2098 0.2098 0.9777 -40.1312 25.1892)" class="st48" width="25.3" height="5"/>
	
		<rect x="89.3" y="271.9" transform="matrix(0.9777 -0.2098 0.2098 0.9777 -54.9872 30.1105)" class="st81" width="50.3" height="4.7"/>
	
		<rect x="80.8" y="232.2" transform="matrix(0.9777 -0.2098 0.2098 0.9777 -46.8419 27.4381)" class="st81" width="50.3" height="4.7"/>
	<path class="st12" d="M87.1,234.7L87.1,234.7c1-0.2,1.7-1.2,1.5-2.2l-3.2-15.7c-0.2-1-1.2-1.7-2.2-1.5l0,0c-1,0.2-1.7,1.2-1.5,2.2
		l3.2,15.7C85.1,234.2,86,234.9,87.1,234.7z"/>
	<path class="st105" d="M82.6,212.4L82.6,212.4c0.7,0.5,1.6,0.3,2.1-0.4l1.2-1.7c0.5-0.7,0.3-1.6-0.4-2.1l0,0
		c-0.7-0.5-1.6-0.3-2.1,0.4l-1.2,1.7C81.7,211,81.9,212,82.6,212.4z"/>
</g>
</svg>
