<?xml version="1.0"?>
<svg xmlns="http://www.w3.org/2000/svg" xmlns:xlink="http://www.w3.org/1999/xlink" xmlns:svgjs="http://svgjs.com/svgjs" version="1.1" width="512" height="512" x="0" y="0" viewBox="0 0 512 512.001" style="enable-background:new 0 0 512 512" xml:space="preserve" class=""><g><path xmlns="http://www.w3.org/2000/svg" d="m335.832031 313.679688c.011719.023437.023438.046874.03125.066406 1.699219 3.804687 5.304688 6.035156 9.128907 6.035156 1.367187 0 2.761718-.285156 4.105468-.882812 5.117188-2.273438 7.328125-8.105469 5.039063-13.277344-2.285157-5.171875-8.089844-7.457032-13.214844-5.203125-5.125 2.257812-7.359375 8.082031-5.089844 13.261719zm0 0" fill="#09dca4" data-original="#000000" style="" class=""/><path xmlns="http://www.w3.org/2000/svg" d="m363.421875 342.824219c-.859375-5.453125-5.980469-9.179688-11.4375-8.3125-5.453125.859375-9.175781 5.980469-8.3125 11.4375 2.242187 14.207031 2.859375 28.6875 1.828125 43.035156-2.390625 33.261719-19.203125 63.617187-46.128906 83.289063l-6.761719 4.9375c-13.246094 9.675781-28.914063 14.789062-45.316406 14.789062-5.9375 0-11.878907-.691406-17.652344-2.054688l-26.5-6.257812c-51.21875-12.09375-97.9375-40.515625-131.550781-80.027344-14.941406-17.566406-21.679688-30.34375-26.855469-43.503906.414063-1.335938.5625-2.777344.367187-4.257812-.054687-.429688-4.976562-43.621094 55.933594-71.347657 41.773438-19.015625 61.316406-51.535156 68.117188-65.554687 45.796875 6.320312 61.558594 19.210937 62.730468 20.222656 2.417969 2.5625 5.753907 3.390625 9.207032 2.609375.832031-.1875 1.65625-.367187 2.476562-.539063 32.042969-6.726562 65.09375 10.339844 78.601563 40.5625 2.253906 5.042969 8.167969 7.304688 13.210937 5.050782 5.042969-2.253906 7.300782-8.167969 5.050782-13.210938-7.652344-17.113281-20.519532-31.523437-36.539063-41.097656.007813-.035156.023437-.066406.035156-.101562 2.015625-6.441407 3.035157-13.160157 3.035157-19.964844 0-1.363282-.054688-2.714844-.132813-4.058594h6.9375c5.519531 0 10-4.476562 10-10s-4.480469-10-10-10h-11.304687c-2.570313-6.632812-6.160157-12.761719-10.59375-18.179688l4.527343-4.527343c3.90625-3.90625 3.90625-10.238281 0-14.144531-3.90625-3.902344-10.234375-3.902344-14.140625 0l-5.234375 5.234374c-8.109375-5.382812-17.457031-9.042968-27.519531-10.457031 13.25-10.597656 30.65625-15.617187 51.867188-14.894531 2.707031.101562 5.339843-.921875 7.292968-2.804688 1.949219-1.882812 3.046875-4.476562 3.046875-7.1875v-38.09375c0-5.203124-3.988281-9.535156-9.175781-9.964843-1.621094-.132813-20.347656-1.558594-44.695312 1.371093-10.886719-21.066406-26.210938-36.714843-43.835938-45.402343l7.078125-10.566407c3.074219-4.589843 1.84375-10.800781-2.746094-13.871093-4.585937-3.074219-10.796875-1.847657-13.871093 2.742187l-10.132813 15.128906c-4.320313-.796874-8.722656-1.222656-13.179687-1.222656-2.570313 0-5.128907.144532-7.664063.414063v-12.042969c0-5.523438-4.476563-10-10-10s-10 4.476562-10 10v17.101562c-9.382813 3.820313-18.269531 9.589844-26.386719 17.230469-6.074218 5.714844-11.539062 12.324219-16.332031 19.65625-3.75-7.398437-11.429687-12.488281-20.277344-12.488281h-27.144531c-12.53125 0-22.726562 10.195312-22.726562 22.726562v102.222657c-5.03125 3.910156-9.882813 8.492187-14.523438 13.785156-21.921875 25.003906-26.285156 57.769531-26.0859375 80.851563.2265625 26.109374 6.5390625 52.726562 16.5156255 69.792968 1.507812 4.039063 2.863281 7.933594 4.179687 11.710938 6.722656 19.273437 13.070313 37.480468 35.652344 64.027344 36.355469 42.738281 86.851562 73.46875 142.191406 86.535156l26.496094 6.257812c7.28125 1.71875 14.765625 2.589844 22.25 2.589844 20.671875 0 40.421875-6.445312 57.109375-18.636719l6.761718-4.9375c31.6875-23.148437 51.472657-58.867187 54.285157-98.007812 1.140625-15.867188.457031-31.878907-2.027344-47.59375zm-122.03125-121.492188c-4.03125-2.804687-10.902344-6.800781-21.640625-10.808593.828125-9.625 3.621094-27.761719 13.011719-44.207032 2.433593-.382812 4.917969-.585937 7.398437-.585937 25.804688 0 46.800782 20.996093 46.800782 46.800781 0 3.972656-.503907 7.894531-1.480469 11.695312-14.195313-4.601562-29.398438-5.636718-44.089844-2.894531zm50.316406-128.277343v18.5c-24.773437 1.074218-45.210937 9.347656-60.859375 24.652343-21.976562 21.503907-28.605468 51.375-30.59375 68.347657-9.566406-2.386719-20.925781-4.539063-34.367187-6.144532-3.039063-2.816406-6.066407-5.472656-9.082031-7.980468.015624-.242188.035156-.480469.035156-.726563 0-26.859375 8.679687-48.484375 25.792968-64.269531 32.546876-30.019532 87.417969-32.589844 109.074219-32.378906zm-110.558593-51.425782c5.011718 0 9.949218.738282 14.753906 2.140625.003906 0 .011718.003907.015625.003907 15.9375 4.65625 30.375 16.753906 40.980469 34.527343-23.246094 5.011719-48.398438 14.539063-67.765626 32.375-18.441406 16.980469-29.050781 39.042969-31.652343 65.710938-8.183594-5.078125-16.28125-8.980469-24.265625-11.6875v-57.824219c.171875-.402344.332031-.8125.457031-1.242188 11.027344-38.28125 38.144531-64.003906 67.476563-64.003906zm-120.53125 32.597656c0-1.503906 1.222656-2.726562 2.726562-2.726562h27.144531c1.503907 0 2.726563 1.222656 2.726563 2.726562v86.167969c-3.351563-.292969-6.675782-.371093-9.980469-.222656-7.824219.347656-15.371094 1.949219-22.617187 4.769531zm-19.484376 129.195313c12.925782-14.746094 27.390626-22.574219 42.992188-23.269531 19.894531-.890625 42.785156 9.921875 66.394531 31.3125-6.105469 11.980468-23.09375 39.097656-57.769531 54.882812-38.269531 17.417969-54.605469 41.050782-61.574219 57.804688-.117187.285156-.226562.5625-.34375.84375-12.640625-28.003906-19.4375-87.65625 10.300781-121.574219zm0 0" fill="#09dca4" data-original="#000000" style="" class=""/><path xmlns="http://www.w3.org/2000/svg" d="m126.820312 402.167969c-4.25-3.527344-10.554687-2.9375-14.082031 1.3125-3.523437 4.25-2.9375 10.554687 1.3125 14.078125 27.050781 22.445312 59.449219 38.578125 93.6875 46.664062.773438.183594 1.546875.269532 2.308594.269532 4.53125 0 8.636719-3.101563 9.722656-7.703126 1.269531-5.375-2.058593-10.761718-7.433593-12.03125-31.253907-7.378906-60.824219-22.109374-85.515626-42.589843zm0 0" fill="#09dca4" data-original="#000000" style="" class=""/><path xmlns="http://www.w3.org/2000/svg" d="m87.867188 376.636719c-4.175782 3.617187-4.648438 9.902343-1.035157 14.074219 1.980469 2.375 4.824219 3.597656 7.691407 3.597656 2.257812 0 4.527343-.757813 6.394531-2.316406 4.242187-3.535157 4.816406-9.839844 1.28125-14.082032l-.203125-.238281c-3.617188-4.175781-9.957032-4.652344-14.128906-1.035156zm0 0" fill="#09dca4" data-original="#000000" style="" class=""/></g></svg>
