<?xml version="1.0"?>
<svg xmlns="http://www.w3.org/2000/svg" xmlns:xlink="http://www.w3.org/1999/xlink" xmlns:svgjs="http://svgjs.com/svgjs" version="1.1" width="512" height="512" x="0" y="0" viewBox="0 0 24 24" style="enable-background:new 0 0 512 512" xml:space="preserve" class=""><g><path xmlns="http://www.w3.org/2000/svg" d="m7.5 24c-.276 0-.5-.224-.5-.5v-1.342c0-.639-.347-1.215-.864-1.434-1.298-.55-2.136-1.815-2.136-3.224 0-1.93 1.57-3.5 3.5-3.5 1.271 0 2.387.682 3 1.699.613-1.017 1.729-1.699 3-1.699 1.93 0 3.5 1.57 3.5 3.5 0 1.409-.838 2.674-2.135 3.224-.518.219-.865.795-.865 1.434v1.331c0 .276-.224.5-.5.5s-.5-.224-.5-.5v-1.331c0-1.052.579-1.976 1.475-2.355.926-.393 1.525-1.297 1.525-2.303 0-1.378-1.122-2.5-2.5-2.5s-2.5 1.122-2.5 2.5c0 .276-.224.5-.5.5s-.5-.224-.5-.5c0-1.378-1.122-2.5-2.5-2.5s-2.5 1.122-2.5 2.5c0 1.006.599 1.91 1.526 2.303.895.379 1.474 1.303 1.474 2.355v1.342c0 .276-.224.5-.5.5z" fill="#09dca4" data-original="#000000" style="" class=""/><path xmlns="http://www.w3.org/2000/svg" d="m15 13.063c-.607 0-1.205-.159-1.745-.47-.81-.467-1.389-1.222-1.631-2.125-.075-.279-.114-.561-.12-.842-.246.136-.511.242-.789.317-.904.243-1.846.118-2.656-.35-.809-.467-1.389-1.222-1.63-2.125-.242-.903-.118-1.847.35-2.656.704-1.219 2.066-1.896 3.461-1.724.558.066 1.146-.256 1.466-.81l1.17-2.028c.139-.239.443-.322.683-.183.239.138.321.444.183.683l-1.17 2.028c-.526.911-1.492 1.425-2.455 1.302-1.003-.124-1.97.361-2.473 1.232-.334.579-.423 1.252-.25 1.897s.586 1.184 1.165 1.518c.578.335 1.251.423 1.897.25.645-.173 1.184-.586 1.518-1.165.138-.239.444-.321.683-.183.16.092.25.26.25.433 0 .085-.021.171-.067.25-.334.579-.422 1.252-.25 1.897s.586 1.184 1.165 1.518 1.252.422 1.897.25c.645-.173 1.184-.586 1.518-1.165.503-.872.437-1.954-.169-2.757-.586-.776-.625-1.866-.1-2.777l3.176-5.035c.148-.233.458-.303.689-.156.234.147.304.455.157.689l-3.166 5.019c-.31.537-.297 1.209.042 1.658.849 1.125.942 2.64.238 3.86-.468.81-1.222 1.389-2.125 1.631-.302.08-.608.119-.912.119z" fill="#09dca4" data-original="#000000" style="" class=""/><path xmlns="http://www.w3.org/2000/svg" d="m15.45 15.73c-.103 0-.206-.031-.295-.097-.223-.163-.271-.476-.108-.699.59-.806.917-1.77.943-2.788.008-.276.272-.482.513-.487.276.007.494.237.487.513-.032 1.222-.425 2.381-1.137 3.352-.098.135-.249.206-.403.206z" fill="#09dca4" data-original="#000000" style="" class=""/><path xmlns="http://www.w3.org/2000/svg" d="m6.26 15.27c-.169 0-.334-.086-.428-.241-.544-.901-.832-1.948-.832-3.029 0-1.634.648-3.158 1.826-4.294.092-.104.225-.171.374-.171.276 0 .5.218.5.495 0 .137-.056.278-.155.373-.996.948-1.545 2.225-1.545 3.597 0 .899.238 1.767.688 2.511.143.236.067.544-.169.687-.081.049-.171.072-.259.072z" fill="#09dca4" data-original="#000000" style="" class=""/></g></svg>
