<?xml version="1.0"?>
<svg xmlns="http://www.w3.org/2000/svg" xmlns:xlink="http://www.w3.org/1999/xlink" xmlns:svgjs="http://svgjs.com/svgjs" version="1.1" width="512" height="512" x="0" y="0" viewBox="0 0 511.975 511.975" style="enable-background:new 0 0 512 512" xml:space="preserve" class=""><g><path xmlns="http://www.w3.org/2000/svg" d="m112.698 253.184c0-4.418-3.582-8-8-8h-21.172c-4.418 0-8 3.582-8 8s3.582 8 8 8h21.171c4.419 0 8.001-3.581 8.001-8z" fill="#09dca4" data-original="#000000" style="" class=""/><path xmlns="http://www.w3.org/2000/svg" d="m460.511 146.296c-78.485-75.564-157.589-31.811-121.885 40.12 9.461 19.059 16.732 34.058 21.493 46.663h-30.006c-10.134 0-18.379-8.242-18.379-18.372v-164.787c0-12.645-10.289-22.933-22.937-22.933s-22.937 10.288-22.937 22.933v166.001c0 15.208 5.424 29.173 14.437 40.065-9.24 11.212-14.437 25.424-14.437 40.067v166.001c0 12.645 10.289 22.933 22.937 22.933s22.937-10.288 22.937-22.933v-164.786c0-10.13 8.245-18.372 18.379-18.372h33.514c-2.989 7.995-8.251 16.05-16.013 25.271-42.072 49.977-5.476 148.781 86.146 112.644 93.355-36.824 104.231-195.92 26.751-270.515zm-178.65-96.376c0-3.823 3.111-6.933 6.937-6.933s6.937 3.11 6.937 6.933v164.787c0 18.953 15.422 34.372 34.379 34.372h34.882c1.112 4.972 1.646 9.51 1.62 13.787-41.356-.178-43.473.978-54.014-2.888-17.925-6.616-30.74-23.867-30.74-44.056v-166.002zm13.873 247.348v164.787c0 3.823-3.111 6.933-6.937 6.933s-6.937-3.11-6.937-6.933v-166.002c0-10.748 3.543-20.859 10.093-29.099 3.99 2.888 8.278 5.28 12.785 7.145-5.589 6.115-9.004 14.251-9.004 23.169zm132.154 104.659c-75.764 29.878-99.68-49.863-68.034-87.456 10.413-12.37 16.979-23.331 20.255-34.346 6.313 2.275 15.475 8.76 17.379 27.244.447 4.341 4.322 7.592 8.778 7.138 4.395-.453 7.591-4.383 7.138-8.778-2.779-26.966-18.412-38.13-30.791-41.568.317-7.508-1.707-17.204-1.677-17.058 24.054-7.699 29.53-32.361 28.822-45.585-.234-4.398-3.978-7.765-8.38-7.544-4.399.216-7.795 3.965-7.599 8.365.003.075.3 7.592-2.755 15.178-2.886 7.167-7.655 11.84-14.471 14.178-5.11-14.673-13.243-31.536-23.595-52.392-28.682-57.783 33.959-81.65 96.455-21.479 69.953 67.345 59.708 212.062-21.525 244.103z" fill="#09dca4" data-original="#000000" style="" class=""/><path xmlns="http://www.w3.org/2000/svg" d="m428.437 245.184h-21.171c-4.418 0-8 3.582-8 8s3.582 8 8 8h21.171c4.418 0 8-3.582 8-8s-3.582-8-8-8z" fill="#09dca4" data-original="#000000" style="" class=""/><path xmlns="http://www.w3.org/2000/svg" d="m223.166 26.987c-12.647 0-22.937 10.288-22.937 22.933v164.787c0 10.13-8.245 18.372-18.379 18.372-2.948 0 10.414.031-30.017.031 4.76-12.611 12.036-27.619 21.504-46.693 35.71-71.943-43.389-115.695-121.885-40.12-77.653 74.763-66.354 233.79 26.753 270.515 91.606 36.133 128.229-62.651 86.146-112.644-7.762-9.221-13.025-17.276-16.013-25.271h33.514c10.134 0 18.379 8.241 18.379 18.372v164.787c0 12.645 10.289 22.933 22.937 22.933s22.937-10.288 22.937-22.933v-166.003c0-15.208-5.424-29.173-14.438-40.065 9.239-11.212 14.438-25.424 14.438-40.067v-166.001c-.002-12.645-10.291-22.933-22.939-22.933zm-6.936 187.72v-164.787c0-3.823 3.112-6.933 6.937-6.933s6.937 3.11 6.937 6.933v166.001c0 10.748-3.542 20.859-10.093 29.1-3.99-2.888-8.279-5.28-12.786-7.145 5.59-6.115 9.005-14.251 9.005-23.169zm-132.154 187.22c-81.302-32.068-91.435-176.798-21.526-244.105 62.469-60.143 125.157-36.341 96.457 21.479-10.352 20.856-18.485 37.719-23.596 52.392-6.816-2.338-11.585-7.011-14.471-14.178-3.023-7.508-2.764-14.948-2.755-15.172.219-4.399-3.161-8.151-7.563-8.387-4.435-.243-8.18 3.149-8.417 7.561-.057 1.073-.443 10.785 3.647 21.354 3.436 8.88 10.541 19.591 25.177 24.25-1.159 5.591-1.807 11.277-1.678 17.04-12.38 3.439-28.013 14.603-30.791 41.568-.485 4.706 3.202 8.82 7.968 8.82 4.05 0 7.524-3.064 7.948-7.181 1.895-18.391 11.011-24.9 17.39-27.207 3.28 11.003 9.843 21.953 20.245 34.309 31.463 37.378 8.103 117.49-68.035 87.457zm146.027 60.128c0 3.823-3.112 6.933-6.937 6.933s-6.937-3.11-6.937-6.933v-164.787c0-18.953-15.422-34.372-34.379-34.372h-36.502c-.029-4.278.503-8.815 1.613-13.787h36.183c25.844 0 46.958 21.01 46.958 46.944v166.002z" fill="#09dca4" data-original="#000000" style="" class=""/></g></svg>
