<?xml version="1.0" encoding="utf-8"?>
<!-- Generator: Adobe Illustrator 22.1.0, SVG Export Plug-In . SVG Version: 6.00 Build 0)  -->
<svg version="1.1" id="Layer_1" xmlns="http://www.w3.org/2000/svg" xmlns:xlink="http://www.w3.org/1999/xlink" x="0px" y="0px"
	 viewBox="0 0 500 500" style="enable-background:new 0 0 500 500;" xml:space="preserve">
<style type="text/css">
	.st0{fill:#00BFBA;}
	.st1{fill:#3075FF;}
	.st2{fill:#077262;}
	.st3{fill:#FFFFFF;}
	.st4{fill:#A1BFFF;}
	.st5{fill:#B71C45;}
	.st6{fill:#F0F5FF;}
	.st7{fill:#3071FF;}
	.st8{fill:#E5205D;}
</style>
<path class="st0" d="M500.5,0H0c28.5,26.3,70.7,56.2,124.7,69c106.4,25.1,180.9,101,232.2,295.4c19.8,75.3,57,114.6,95.1,134.6h48.5
	V0H500.5z"/>
<g>
	<circle class="st1" cx="387.5" cy="163.3" r="49.1"/>
	<path class="st2" d="M348.3,415.2h-203c-9.8,0-17.9-8-17.9-17.8V132.3c0-8.8,8-16.1,17.9-16.1h203c9.8,0,17.9,7.2,17.9,16.1v265.1
		C366.2,407.2,358.1,415.2,348.3,415.2z"/>
	<rect x="142.2" y="144.8" class="st3" width="207.9" height="258.2"/>
	<path class="st4" d="M289.6,158.5h-85.1c-8.6,0-15.7-7.1-15.7-15.7l0,0c0-8.6,7.1-15.7,15.7-15.7h85.1c8.6,0,15.7,7.1,15.7,15.7
		l0,0C305.3,151.5,298.3,158.5,289.6,158.5z"/>
	
		<ellipse transform="matrix(0.7071 -0.7071 0.7071 0.7071 3.8545 312.7256)" class="st5" cx="379.4" cy="151.7" rx="49.1" ry="49.1"/>
	<path class="st6" d="M379.4,178.6L379.4,178.6c-4.4,0-8-3.6-8-8v-37.7c0-4.4,3.6-8,8-8l0,0c4.4,0,8,3.6,8,8v37.7
		C387.5,174.9,383.9,178.6,379.4,178.6z"/>
	<path class="st6" d="M352.6,151.7L352.6,151.7c0-4.4,3.6-8,8-8h37.7c4.4,0,8,3.6,8,8l0,0c0,4.4-3.6,8-8,8h-37.7
		C356.2,159.7,352.6,156.1,352.6,151.7z"/>
	<path class="st4" d="M298,346.7H176.7c-3.7,0-6.7-3-6.7-6.7v-37.1c0-3.7,3-6.7,6.7-6.7H298c3.7,0,6.7,3,6.7,6.7V340
		C304.7,343.6,301.6,346.7,298,346.7z"/>
	<path class="st4" d="M316.2,279h-140c-5.6,0-10.2-4.6-10.2-10.2v-77.5c0-5.6,4.6-10.2,10.2-10.2h140c5.6,0,10.2,4.6,10.2,10.2v77.5
		C326.4,274.4,321.8,279,316.2,279z"/>
	<ellipse class="st3" cx="203.5" cy="231.8" rx="26.2" ry="26.2"/>
	<g>
		<g>
			<path class="st3" d="M212.4,305.1c-3.7,1.1-6.2,3.8-7.9,6.2c-0.5,0.7-1.6,0.7-2.1,0c-1.8-2.5-4.4-5.6-8-6.2
				c-6.8-1.3-11.7,4.8-9.6,11.6c2.2,8.4,18.8,21.4,18.8,21.4h0.4c0,0,16.3-12.9,18.3-21.3C224.2,310,219.9,302.9,212.4,305.1z"/>
		</g>
	</g>
	<g>
		<g>
			<path class="st7" d="M205.7,328.4C205.7,328.4,205.6,328.4,205.7,328.4c-0.6,0-1.2-0.4-1.4-1l-3-8.1l-1.4,3.9
				c-0.2,0.6-0.7,0.9-1.3,0.9h-5.1c-0.4,0-0.6-0.3-0.6-0.7l0,0c0-0.9,1-2,1.9-1.9h3l2.3-6c0.2-0.6,0.7-0.9,1.3-0.9l0,0
				c0.6,0,1.1,0.4,1.3,1l3,8.3l1.2-2.8c0.2-0.5,0.7-0.9,1.3-0.9h5.5c0.4,0,0.6,0.3,0.6,0.7l0,0c0,0.9-1,2-1.9,1.9h-3.5l-2,4.8
				C206.8,328.1,206.3,328.4,205.7,328.4z M197.5,322.2L197.5,322.2L197.5,322.2z M209.3,322.1L209.3,322.1L209.3,322.1z"/>
		</g>
	</g>
	<g>
		<g>
			<path class="st3" d="M229.7,322.2L229.7,322.2c0-2.7,2.2-4.9,4.9-4.9h56.1c2.7,0,4.9,2.2,4.9,4.9l0,0c0,2.7-2.2,4.9-4.9,4.9
				h-56.1C231.9,327.1,229.7,324.9,229.7,322.2z"/>
		</g>
	</g>
	<g>
		<g>
			<path class="st3" d="M236.4,243L236.4,243c0-2.7,2.2-4.9,4.9-4.9h56.1c2.7,0,4.9,2.2,4.9,4.9l0,0c0,2.7-2.2,4.9-4.9,4.9h-56.1
				C238.6,247.9,236.4,245.7,236.4,243z"/>
		</g>
	</g>
	<g>
		<g>
			<path class="st3" d="M236.4,221.5L236.4,221.5c0-2.7,2.2-4.9,4.9-4.9h71c2.7,0,4.9,2.2,4.9,4.9l0,0c0,2.7-2.2,4.9-4.9,4.9h-71
				C238.6,226.4,236.4,224.2,236.4,221.5z"/>
		</g>
	</g>
	<path class="st7" d="M215.4,241.1c-0.4-3.4-2.7-5.8-4.4-6.6c-0.7-0.3-1.4-0.5-2.1-0.8c-0.4-0.2-0.8-0.3-1.2-0.5l0,0l0,0
		c-0.3-0.1-0.6-0.2-0.9-0.3h-0.1l0,0l-0.5-0.2l0,0c-0.2-0.1-0.3-0.3-0.5-0.4l-0.2-0.2c0-0.1,0-0.2,0-0.2c0-0.7,0-1.3,0.1-2l0,0
		c0.4-0.3,0.7-0.8,0.9-1.3c0.2-0.4,0.3-0.8,0.3-1.1c1-0.1,1.4-1.4,1.5-2.3c0.1-0.7,0.3-2.5-0.8-2.5c0-0.1,0-0.2,0.1-0.3
		c0.2-0.6,0.3-1.2,0.3-1.8s-0.1-1.2-0.4-1.7c-0.1-0.2-0.2-0.3-0.4-0.4c0.1-0.1,0.1-0.3,0.1-0.5c0-1.5-1.4-2.2-2.4-2.6
		c-0.9-0.3-1.8-0.5-2.7-0.5s-1.8,0.2-2.7,0.5c-1,0.4-2.4,1.1-2.4,2.6c0,0.2,0,0.4,0.1,0.5c-0.2,0-0.3,0.2-0.4,0.4
		c-0.3,0.5-0.4,1.1-0.4,1.7c0,0.6,0.1,1.2,0.3,1.8c0,0.1,0,0.2,0.1,0.3c-1.1,0-0.9,1.8-0.8,2.5c0.1,0.9,0.5,2.2,1.5,2.3
		c0.1,0.4,0.2,0.8,0.3,1.1c0.2,0.5,0.6,0.9,0.9,1.3l0,0c0,0.7,0,1.3,0.1,2c0,0.1,0,0.2,0,0.2l-0.2,0.2c-0.2,0.1-0.3,0.3-0.5,0.4l0,0
		l-0.5,0.2l0,0h-0.1c-0.3,0.1-0.6,0.2-0.9,0.3l0,0l0,0c-0.4,0.2-0.8,0.3-1.2,0.5c-0.7,0.3-1.4,0.5-2.1,0.8c-1.7,0.8-4,3.2-4.4,6.6
		c-0.2,1.6,0.7,2.6,2.3,2.7l11,0.1l11-0.1C214.7,243.8,215.6,242.7,215.4,241.1z"/>
	<path class="st6" d="M291.5,144.2h-86.2c-1.7,0-3.1-1.4-3.1-3.1l0,0c0-1.7,1.4-3.1,3.1-3.1h86.2c1.7,0,3.1,1.4,3.1,3.1l0,0
		C294.6,142.8,293.2,144.2,291.5,144.2z"/>
	<path class="st8" d="M65.7,273c-2.3-2.2-3-5.3-1.5-6.9l4.2-4.4c1.5-1.6,4.7-1.1,7,1.2l3.2,3.1l7.4,7.2l50,48.1l3.2,3.1l1.4,1.4
		c0.9,0.9,1.6,1.8,2.2,2.9l7.6,13.6c1.3,2.3-0.4,4.1-2.7,2.9l-13.9-7.1c-1-0.5-2-1.3-2.9-2.1l-1.4-1.4l-3.2-3.1l-50-48.1l0,0
		L65.7,273z"/>
	<path class="st1" d="M421,317.3h-55.6c-5.5,0-9.9-4.4-9.9-9.9v-55.6c0-5.5,4.4-9.9,9.9-9.9H421c5.5,0,9.9,4.4,9.9,9.9v55.6
		C430.9,312.9,426.5,317.3,421,317.3z"/>
	<path class="st4" d="M405.4,304.9h-55.6c-5.5,0-9.9-4.4-9.9-9.9v-55.6c0-5.5,4.4-9.9,9.9-9.9h55.6c5.5,0,9.9,4.4,9.9,9.9V295
		C415.3,300.5,410.9,304.9,405.4,304.9z"/>
	<path class="st7" d="M392.2,249.5c-5.8-5.1-14.6-4.6-19.7,1.2s-4.6,14.6,1.2,19.7c5.8,5.1,14.6,4.6,19.7-1.2
		C398.5,263.4,398,254.6,392.2,249.5z M390.6,266.8c-3.7,4.2-10.2,4.6-14.4,0.9c-4.2-3.7-4.6-10.2-0.9-14.4
		c3.7-4.2,10.2-4.6,14.4-0.9C394,256.1,394.4,262.6,390.6,266.8z"/>
	<path class="st7" d="M360.4,286.3L360.4,286.3c-0.9-0.8-1-2.2-0.1-3.1l9.1-10c0.8-0.9,2.2-1,3.1-0.1l0,0c0.9,0.8,1,2.2,0.1,3.1
		l-9.1,10C362.7,287,361.3,287.1,360.4,286.3z"/>
</g>
</svg>
