<?xml version="1.0" encoding="utf-8"?>
<!-- Generator: Adobe Illustrator 22.1.0, SVG Export Plug-In . SVG Version: 6.00 Build 0)  -->
<svg version="1.1" id="Layer_1" xmlns="http://www.w3.org/2000/svg" xmlns:xlink="http://www.w3.org/1999/xlink" x="0px" y="0px"
	 viewBox="0 0 500 500" style="enable-background:new 0 0 500 500;" xml:space="preserve">
<style type="text/css">
	.st0{fill:#00BFBA;}
	.st1{opacity:0.14;fill:#2B41E3;}
	.st2{opacity:0.28;}
	.st3{fill:#FFFFFF;}
	.st4{fill:#292685;}
	.st5{fill-rule:evenodd;clip-rule:evenodd;fill:#E6EEFF;}
	.st6{fill-rule:evenodd;clip-rule:evenodd;fill:#3071FF;}
	.st7{fill-rule:evenodd;clip-rule:evenodd;fill:#CFDEFF;}
	.st8{fill-rule:evenodd;clip-rule:evenodd;fill:#FFFFFF;}
	.st9{fill-rule:evenodd;clip-rule:evenodd;fill:#2A63E0;}
	.st10{fill-rule:evenodd;clip-rule:evenodd;fill:#F5B8B0;}
	.st11{fill:#F5F6F7;}
	.st12{fill:#FF85FF;}
	.st13{fill:#FF65FF;}
	.st14{fill:#F6F3EE;}
	.st15{fill:#013AD6;}
	.st16{fill-rule:evenodd;clip-rule:evenodd;fill:#142585;}
	.st17{fill-rule:evenodd;clip-rule:evenodd;fill:#E09F98;}
	.st18{fill:#142585;}
	.st19{fill:#FBFBFF;}
	.st20{fill:#0145FF;}
	.st21{opacity:0.32;}
	.st22{opacity:0.24;}
	.st23{fill:none;stroke:#FFFFFF;stroke-width:0.9459;stroke-linecap:round;stroke-linejoin:round;stroke-miterlimit:10;}
	.st24{opacity:0.28;fill:#FFFFFF;}
	.st25{opacity:0.29;fill:#2D69ED;}
	.st26{opacity:0.25;fill:#D6E3FF;}
	.st27{fill:#3075FF;}
	.st28{fill:#1D59DE;}
	.st29{fill:#A1BFFF;}
	.st30{fill:#F0F5FF;}
	.st31{fill:#3071FF;}
	.st32{fill:#C2D5FF;}
	.st33{fill:#548CFF;}
	.st34{fill:#2C67DE;}
	.st35{fill:#82AAFF;}
	.st36{fill:#275ACF;}
	.st37{fill:#D9E5FF;}
	.st38{fill:#BA4ABA;}
	.st39{fill:#BDD1FF;}
	.st40{fill:none;stroke:#292685;stroke-linecap:round;stroke-linejoin:round;stroke-miterlimit:10;}
	.st41{fill:#FFFFFF;stroke:#FFFFFF;stroke-width:1.4852;stroke-miterlimit:10;}
	.st42{fill:#ADC7FF;}
	.st43{fill:none;stroke:#FFFFFF;stroke-width:0.6164;stroke-linecap:round;stroke-linejoin:round;stroke-miterlimit:10;}
	.st44{fill:none;stroke:#FFFFFF;stroke-width:0.5688;stroke-linecap:round;stroke-linejoin:round;stroke-miterlimit:10;}
	.st45{opacity:0.33;fill:#2555C4;}
	.st46{fill:url(#SVGID_1_);}
	.st47{fill:#D6E3FF;}
	.st48{fill:none;stroke:#BFD3FF;stroke-width:1.0825;stroke-miterlimit:10;}
	.st49{fill:#E6EDFF;}
	.st50{fill-rule:evenodd;clip-rule:evenodd;fill:#82AAFF;}
	.st51{fill:#F0F0F0;}
</style>
<g>
	<path class="st0" d="M135.5,421.2c-20.2-0.1-38.3-12.1-46.3-30.7C58.4,318.8,0.5,141.1,152.1,85.4c119.7-44,183.9-43,225.9-20.9
		c35.9,18.9,59.4,56.4,61.7,96.4c4.8,83.1,13,257.8-83.7,259.3C269.5,421.6,181.2,421.4,135.5,421.2z"/>
	<path class="st1" d="M389.5,410.9c-20.2-26.6-63.2-68.4-147.6-97.9C147.5,280.1,95.2,195,72.8,148.4
		c-44.4,76.8-6.5,188.7,16.4,242.1c7.9,18.5,26.1,30.6,46.3,30.7c45.7,0.2,134,0.4,220.5-1C368.9,420,380,416.7,389.5,410.9z"/>
</g>
<g>
	<g class="st2">
		<path class="st3" d="M68.6,196.4c0,1.7-1.4,3.1-3.1,3.1c-1.7,0-3.1-1.4-3.1-3.1c0-1.7,1.4-3.1,3.1-3.1
			C67.2,193.4,68.6,194.7,68.6,196.4z"/>
		<path class="st3" d="M100.7,196.4c0,1.7-1.4,3.1-3.1,3.1c-1.7,0-3.1-1.4-3.1-3.1c0-1.7,1.4-3.1,3.1-3.1
			C99.4,193.4,100.7,194.7,100.7,196.4z"/>
		<path class="st3" d="M132.9,196.4c0,1.7-1.4,3.1-3.1,3.1c-1.7,0-3.1-1.4-3.1-3.1c0-1.7,1.4-3.1,3.1-3.1
			C131.5,193.4,132.9,194.7,132.9,196.4z"/>
		<path class="st3" d="M68.6,220.1c0,1.7-1.4,3.1-3.1,3.1c-1.7,0-3.1-1.4-3.1-3.1c0-1.7,1.4-3.1,3.1-3.1
			C67.2,217,68.6,218.4,68.6,220.1z"/>
		<path class="st3" d="M100.7,220.1c0,1.7-1.4,3.1-3.1,3.1c-1.7,0-3.1-1.4-3.1-3.1c0-1.7,1.4-3.1,3.1-3.1
			C99.4,217,100.7,218.4,100.7,220.1z"/>
		<path class="st3" d="M132.9,220.1c0,1.7-1.4,3.1-3.1,3.1c-1.7,0-3.1-1.4-3.1-3.1c0-1.7,1.4-3.1,3.1-3.1
			C131.5,217,132.9,218.4,132.9,220.1z"/>
		<path class="st3" d="M68.6,243.7c0,1.7-1.4,3.1-3.1,3.1c-1.7,0-3.1-1.4-3.1-3.1c0-1.7,1.4-3.1,3.1-3.1
			C67.2,240.7,68.6,242.1,68.6,243.7z"/>
		<path class="st3" d="M100.7,243.7c0,1.7-1.4,3.1-3.1,3.1c-1.7,0-3.1-1.4-3.1-3.1c0-1.7,1.4-3.1,3.1-3.1
			C99.4,240.7,100.7,242.1,100.7,243.7z"/>
		<path class="st3" d="M132.9,243.7c0,1.7-1.4,3.1-3.1,3.1c-1.7,0-3.1-1.4-3.1-3.1c0-1.7,1.4-3.1,3.1-3.1
			C131.5,240.7,132.9,242.1,132.9,243.7z"/>
	</g>
	<path class="st4" d="M237,309.5c0,2-1.7,3.5-3.8,3.5c-2.1,0-3.8-1.6-3.8-3.5c0-2,1.7-3.5,3.8-3.5C235.3,306,237,307.6,237,309.5z"
		/>
	<path class="st5" d="M179.6,254.5c20.4-3,32-4.7,50.9-1.3c10.7,6.3,22.6,23.1,26.8,37.9L225,311.7L151.2,273L179.6,254.5z"/>
	<path class="st6" d="M265,274.5c-21.2-1-27.8-10.5-56-11.9c-25.7-1.2-49.8,9.8-69.5,8.9c-9.2-0.4-19.5,34.1-18.3,43.2
		c7.7,58.9,8.8,160.4,8.8,160.4c7,9.5,14,17.8,20.9,24.8l121.2,0c5.1-5.5,10.2-11.8,15.3-18.7C287.5,481.3,273.6,274.9,265,274.5z"
		/>
	<path class="st5" d="M280.2,276.1l83,114.3c0,0-9.3,33.2-21,30.4c-36.2-8.7-84.8-65.5-84.8-65.5L280.2,276.1z"/>
	<path class="st5" d="M190.8,500l3.5-114.6l-26.7-118.5l-19.3-0.9l-14,6c-15.7,7-23,17.3-22.3,34.1l11.7,112.2l-8.4,81.7L190.8,500z
		"/>
	<path class="st7" d="M143.2,500l-22.1-200.5c-0.6-12.4,17.4-6.7,26.6-15l19.8-17.7l-19.3-0.9l-14,6c-15.7,7-23,17.3-22.3,34.1
		l11.7,112.2l-8.4,81.7L143.2,500z"/>
	<path class="st8" d="M179.6,254.5c0,0-15.2,15,2.6,51.5c6.8,14,15.9,53.2,12,81.5l-39.7-58.7l13.4-15.1l-23.6-13.5l3.6-34.8
		C159.3,261.4,159.6,260.7,179.6,254.5z"/>
	<path class="st9" d="M282.7,500l-4.7-169.3c-0.7-16.6,3.4-57.4-15.3-62.6l-4.2-0.7l-0.7,5.2c0,0-0.5-2.6-25.2-6.7
		c0,0-4.5-2.7,0.4,10.9c2.8,7.7,3.5,18.7,3.4,33.2c-0.5,45.5,2.8,75,3,76.7l8.2,113.2H282.7z"/>
	<path class="st5" d="M115.3,288c0,0-51.1,90.8-56,133.5c-2.7,23.9-2.4,54.6-1.6,76.9l44.5,0.5c-1.1-23.1-1.5-53.8,2.6-68.4
		c7-25.2,43.4-78.1,43.4-78.1L115.3,288z"/>
	<path class="st7" d="M115.3,288c0,0-51.1,90.8-56,133.5c-2.7,23.9-2.4,54.6-1.6,76.9l12,0.5c8.2-33.8-5.7-52-1.8-74.5
		c4.5-26.1,24.3-52,32.3-72.3c14-35.3,20.9-52.6,20.9-52.6L115.3,288z"/>
	<path class="st10" d="M392.7,202.4c0,0,11.1-20.5,4.2-26.4s-20.6,31.9-20.6,31.9l14.1,8L392.7,202.4z"/>
	<path class="st10" d="M362.8,275.8c0,0,13.7-8.6,26.5-17.2c14-9.4,13.9-16.6,2.5-25.7c-3.2-2.5-14.8-1.1-14.8-1.1l-18.2,14.5
		c0,0-23,13.7-16.5,24.7C348.9,282.1,362.8,275.8,362.8,275.8z"/>
	<path class="st10" d="M323,376.6L342.6,267l25.4,6c0,0,1.7,112.7-6.3,120.1C353.8,400.4,324.3,416.1,323,376.6z"/>
	<path class="st5" d="M339.1,281.6l36.5,16.1c0,0-5.2,76.3-16.6,104.8l-19.7,9.2l-20.4-18.1L339.1,281.6z"/>
	<path class="st7" d="M375.4,297.6l-10.5-4.6c-2,20.1-5.5,48.5-10.6,68.3l0.3,0.4c0,0-1.6,5.6-4.3,12c0,0,0,0,0,0l0,0
		c-3.8,9.2-9.9,20-16.7,18.4c-24.7-5.9-55.2-34.3-72.1-51.8l-4.3,14.8c0,0,48.6,56.8,84.8,65.5c6.8,1.6,12.9-9.2,16.7-18.4l0,0
		c0,0,0,0,0,0c2.7-6.4,4.3-12,4.3-12l-0.3-0.4C371.4,356.3,375.4,297.6,375.4,297.6z"/>
	<g>
		<path class="st11" d="M357.1,262.4l0.5,0c-33-6.2-58.4-33.1-58.7-64.7l-9.5-60.6c-0.8-5.4,2-10.6,7-12.8l55.4-24.5
			c2.4-1,5.1-1.1,7.5-0.1l54,22.7c4.9,2.1,7.9,7.1,7.3,12.3l-6.6,61.9C414.3,228.3,389.8,257.5,357.1,262.4z"/>
		<path class="st12" d="M356.9,246.8l0.4,0c-26.4-5-46.7-26.5-46.9-51.8l-7.3-56.4l52.6-23.2l46.2,19.4l0.5,59.4
			C402.7,219.5,383.1,242.9,356.9,246.8z"/>
		<path class="st13" d="M356.9,246.8l0.4,0l-1.6-131.4l53.2,22.3l-6.4,56.5C402.7,219.5,383.1,242.9,356.9,246.8z"/>
		<path class="st14" d="M356.2,202L356.2,202c-3.1,0-5.7-2.6-5.7-5.7l0.1-32.9c0-3.1,2.6-5.7,5.7-5.7l0,0c3.1,0,5.7,2.6,5.7,5.7
			l-0.1,32.9C361.9,199.5,359.3,202,356.2,202z"/>
		<path class="st14" d="M334.7,179.8L334.7,179.8c0-3.1,2.5-5.6,5.6-5.6l33.1,0.1c3.1,0,5.6,2.5,5.6,5.6v0c0,3.1-2.5,5.6-5.6,5.6
			l-33.1-0.1C337.2,185.4,334.7,182.9,334.7,179.8z"/>
	</g>
	<g>
		<g>
			<path class="st15" d="M187.3,246.1c-13,4.7-23.3,15.5-28.5,28.3c-3.4,8.3-0.6,17.5-2.8,26.1c-2.7,10.5-8.8,19.7-12.6,29.8
				c-1.2,3.3,3.8,5.6,5,2.3c6-15.8,14.6-28.4,14.2-45.9c-0.4-15.8,12.3-30.2,26.7-35.4C192.7,250,190.7,244.9,187.3,246.1
				L187.3,246.1z"/>
		</g>
	</g>
	<g>
		<g>
			<path class="st15" d="M157.8,287.8c2.1,13.7,15.9,27.7,10,42.4c-1.3,3.3,3.7,5.5,5,2.3c6.7-16.5-7.2-29.9-9.5-45.2
				C162.7,283.7,157.2,284.3,157.8,287.8L157.8,287.8z"/>
		</g>
	</g>
	<path class="st3" d="M150.5,339.1l4.3,42.2c1.3,9.1,2.7,14.2,14,13.3c0,1.6,0.1,3.2,0,4.7l-1.8,0.2c-8.3,0.8-15.8-5.2-16.7-13.5
		l-5.1-50.6C144.4,327.2,149.6,331,150.5,339.1z"/>
	<path class="st15" d="M174.2,394.1l-6-0.1c-1.7,0-3.1,1.3-3.1,3l0,0.9c0,1.7,1.3,3.1,3,3.1l6,0.1c1.7,0,3.1-1.3,3.1-3l0-0.9
		C177.2,395.5,175.8,394.1,174.2,394.1z"/>
	<path class="st3" d="M164.9,338.4l-13.9,40.1c-3.3,8.6-5.9,13.2-16.7,9.7c-0.4,1.5-0.8,3.1-1.1,4.6l1.7,0.6
		c7.9,2.7,16.6-1.4,19.3-9.3l16.7-48C173.5,328.2,167.6,330.7,164.9,338.4z"/>
	<path class="st15" d="M129.1,386.5l5.8,1.3c1.6,0.4,2.7,2,2.3,3.7l-0.2,0.8c-0.4,1.6-2,2.7-3.7,2.3l-5.8-1.3
		c-1.6-0.4-2.7-2-2.3-3.7l0.2-0.8C125.8,387.1,127.5,386.1,129.1,386.5z"/>
	<path class="st15" d="M148.2,335.6l-3.1-0.2c-1.6-0.1-2.8-1.4-2.7-3l0.1-1.6c0.1-1.6,1.4-2.8,3-2.7l3.1,0.2c1.6,0.1,2.8,1.4,2.7,3
		l-0.1,1.6C151.1,334.5,149.8,335.7,148.2,335.6z"/>
	<path class="st15" d="M169.5,337l-3-0.8c-1.5-0.4-2.5-2-2.1-3.5l0.4-1.6c0.4-1.5,2-2.5,3.5-2.1l3,0.8c1.5,0.4,2.5,2,2.1,3.5
		l-0.4,1.6C172.6,336.5,171.1,337.4,169.5,337z"/>
	<path class="st16" d="M238.8,153.5c0,0,33.6,12.3,10.3,44.5S238.8,153.5,238.8,153.5L238.8,153.5z"/>
	<path class="st10" d="M248.8,179c-1.2-10.8-6.9-20.7-15.6-27.2c-8.7-6.5-19.7-9.2-30.5-7.3l0,0c-20.8,3.6-35.1,22.7-32.8,43.7
		c1.4,12.1,4.4,16.5,5.6,27.9c2.6,26.6,46.1,30.9,53.1,29.7c15.3-2.6,25.8-16.7,24.1-32.1C251.5,203.1,250.1,190.7,248.8,179
		L248.8,179z"/>
	<path class="st10" d="M182.3,273l7.4-52.9l37.5,7.3l1.4,49C226.5,306.9,180.1,303.6,182.3,273L182.3,273z"/>
	<path class="st16" d="M192.2,178.4c0,0,7.7,35.7-20.6,38.6c0,0-20.4-22.1-12.7-44c5.5-15.9,49.4-45.5,75.6-34.1
		C260.6,150.2,246.9,175.2,192.2,178.4L192.2,178.4z"/>
	<path class="st17" d="M227.8,245.9c0,0-19,2.1-36.7-10.4c0,0,19.3,24.2,37,20.9L227.8,245.9z"/>
	<g>
		<g>
			<path class="st18" d="M243.8,208.5c-4.2,0-8-2.9-8.8-7.1l-0.2-1c-0.5-2.2,0-4.5,1.2-6.4c1.3-1.9,3.3-3.2,5.6-3.6l9.4-1.6
				c4.7-0.8,9.3,2.3,10.3,6.9l0.2,1c0.5,2.2,0,4.5-1.2,6.4c-1.3,1.9-3.3,3.2-5.6,3.6l-9.4,1.6C244.8,208.4,244.3,208.5,243.8,208.5z
				 M252.4,190.4c-0.4,0-0.8,0-1.2,0.1l-9.4,1.6c-1.8,0.3-3.4,1.3-4.5,2.8c-1,1.5-1.4,3.3-1,5.1l0.2,1c0.8,3.8,4.6,6.3,8.4,5.7
				l9.4-1.6c1.8-0.3,3.4-1.3,4.5-2.8c1-1.5,1.4-3.3,1-5.1l-0.2-1C258.9,192.7,255.8,190.4,252.4,190.4z"/>
		</g>
	</g>
	<g>
		<g>
			<path class="st18" d="M212.4,212.9c-4.2,0-8-2.9-8.8-7.1l-0.2-1c-0.5-2.2,0-4.5,1.2-6.4c1.3-1.9,3.3-3.2,5.6-3.6l9.4-1.6
				c4.7-0.8,9.3,2.3,10.3,6.9l0.2,1c0.5,2.2,0,4.5-1.2,6.4c-1.3,1.9-3.3,3.2-5.6,3.6l0,0l-9.4,1.6
				C213.4,212.8,212.9,212.9,212.4,212.9z M221,194.8c-0.4,0-0.8,0-1.2,0.1l-9.4,1.6c-1.8,0.3-3.4,1.3-4.5,2.8c-1,1.5-1.4,3.3-1,5.1
				l0.2,1c0.8,3.8,4.6,6.3,8.4,5.7l9.4-1.6c1.8-0.3,3.4-1.3,4.5-2.8c1-1.5,1.4-3.3,1-5.1l-0.2-1C227.5,197.2,224.4,194.8,221,194.8z
				 M223.2,210.3L223.2,210.3L223.2,210.3z"/>
		</g>
	</g>
	<g>
		<g>
			<path class="st18" d="M204.4,206.5C204.4,206.5,204.4,206.5,204.4,206.5l-34.8-2.5c-0.5,0-0.8-0.4-0.8-0.9c0-0.5,0.4-0.8,0.9-0.8
				l34.7,2.5c0.5,0,0.8,0.4,0.8,0.9C205.2,206.1,204.9,206.5,204.4,206.5z"/>
		</g>
	</g>
	<path class="st10" d="M176.2,202.6c5.3-0.8,10.4,3.9,11.4,10.6c1.1,6.7-2.3,12.8-7.6,13.7c-5.3,0.8-10.4-3.9-11.4-10.6
		C167.6,209.6,171,203.4,176.2,202.6L176.2,202.6z"/>
	<path class="st5" d="M255.4,500l-9.7-133.4l4.2-81.5l12.3-19.3l8.2,1.4c18.7,5.2,14.6,46,15.3,62.6l4.7,170.2H255.4z"/>
	<path class="st8" d="M240.7,275.9c2.8,7.7,3.5,18.7,3.4,33.2c-0.5,46.9,3,76.8,3,76.8l26-55.6l-17.8-14.6l19.4-14.9l-9.3-37.5
		c0,0-10.2-5.9-34.9-10C230.5,253.3,235.8,262.3,240.7,275.9z"/>
	<g>
		<g>
			<path class="st15" d="M260.1,330.9c-6.7-14.5-4.8-32.8-7.7-48.3c-2.6-14.4-8.2-29.5-23.6-33.8c-2.6-0.7-3.4,3.4-0.8,4.2
				c16.3,4.5,19.6,24,21.5,38.4c1.7,13.3,1,28.6,6.6,41C257.2,334.8,261.2,333.4,260.1,330.9L260.1,330.9z"/>
		</g>
		
			<ellipse transform="matrix(0.8631 -0.5051 0.5051 0.8631 -140.9041 180.9488)" class="st15" cx="263.3" cy="350.4" rx="12.8" ry="12.8"/>
		<path class="st15" d="M264.5,340.5l-8.3,2.4l-3.1-10.9c-0.4-1.3,0.4-2.6,1.6-2.9l3.7-1.1c1.3-0.4,2.6,0.4,2.9,1.6L264.5,340.5z"/>
		
			<ellipse transform="matrix(0.9198 -0.3923 0.3923 0.9198 -115.3252 130.9881)" class="st19" cx="262.9" cy="347.7" rx="9.9" ry="9.9"/>
		
			<ellipse transform="matrix(0.318 -0.9481 0.9481 0.318 -147.255 482.9917)" class="st15" cx="262.1" cy="343.9" rx="9.9" ry="9.9"/>
		<path class="st20" d="M267,340c1.2,2.8,0,6-2.8,7.3c-2.8,1.2-6,0-7.3-2.8c-1.2-2.8,0-6,2.8-7.3C262.5,336,265.7,337.2,267,340z"/>
	</g>
	<path class="st18" d="M234.5,200.1l-4.6,0.6c-0.4,0.1-0.8-0.2-0.8-0.6l0,0c-0.1-0.4,0.2-0.8,0.6-0.8l4.6-0.6
		c0.4-0.1,0.8,0.2,0.8,0.6l0,0C235.2,199.6,234.9,200,234.5,200.1z"/>
	<g class="st21">
		<path class="st3" d="M131.2,177.5l-23.4-7.3c-1.5-0.5-2.4-2.1-1.9-3.6l7.3-23.4c0.5-1.5,2.1-2.4,3.6-1.9l23.4,7.3
			c1.5,0.5,2.4,2.1,1.9,3.6l-7.3,23.4C134.4,177.1,132.8,178,131.2,177.5z M112.4,165.5l17.8,5.6l5.6-17.8l-17.8-5.6L112.4,165.5z"
			/>
	</g>
	<g class="st22">
		<path class="st3" d="M406.3,383.9c-12.3,0-22.4-10-22.4-22.4c0-12.3,10-22.4,22.4-22.4c12.3,0,22.4,10,22.4,22.4
			C428.7,373.8,418.6,383.9,406.3,383.9z M406.3,348.4c-7.2,0-13.1,5.9-13.1,13.1c0,7.2,5.9,13.1,13.1,13.1s13.1-5.9,13.1-13.1
			C419.4,354.3,413.5,348.4,406.3,348.4z"/>
	</g>
	<path class="st23" d="M385.3,284.8c3.7,0,50.7,0,50.7,0"/>
	<path class="st23" d="M307.5,436.3c3.7,0,50.7,0,50.7,0"/>
	<path class="st23" d="M45.3,284.8c3.7,0,50.7,0,50.7,0"/>
	<path class="st24" d="M398.8,418.2c0,2.6-2.1,4.8-4.8,4.8c-2.6,0-4.8-2.1-4.8-4.8c0-2.6,2.1-4.8,4.8-4.8
		C396.6,413.4,398.8,415.6,398.8,418.2z"/>
	<path class="st24" d="M438.6,235.5c0,2.6-2.1,4.8-4.8,4.8c-2.6,0-4.8-2.1-4.8-4.8c0-2.6,2.1-4.8,4.8-4.8
		C436.5,230.7,438.6,232.8,438.6,235.5z"/>
	<path class="st24" d="M288.4,231.5c0,2.6-2.1,4.8-4.8,4.8s-4.8-2.1-4.8-4.8s2.1-4.8,4.8-4.8S288.4,228.8,288.4,231.5z"/>
</g>
</svg>
