<?xml version="1.0" encoding="utf-8"?>
<!-- Generator: Adobe Illustrator 22.1.0, SVG Export Plug-In . SVG Version: 6.00 Build 0)  -->
<svg version="1.1" id="Layer_1" xmlns="http://www.w3.org/2000/svg" xmlns:xlink="http://www.w3.org/1999/xlink" x="0px" y="0px"
	 viewBox="0 0 500 500" style="enable-background:new 0 0 500 500;" xml:space="preserve">
<style type="text/css">
	.st0{fill:#09dca4;}
	.st1{opacity:0.14;fill:#2B41E3;}
	.st2{opacity:0.28;}
	.st3{fill:#FFFFFF;}
	.st4{fill:#292685;}
	.st5{fill-rule:evenodd;clip-rule:evenodd;fill:#E6EEFF;}
	.st6{fill-rule:evenodd;clip-rule:evenodd;fill:#3071FF;}
	.st7{fill-rule:evenodd;clip-rule:evenodd;fill:#CFDEFF;}
	.st8{fill-rule:evenodd;clip-rule:evenodd;fill:#FFFFFF;}
	.st9{fill-rule:evenodd;clip-rule:evenodd;fill:#2A63E0;}
	.st10{fill-rule:evenodd;clip-rule:evenodd;fill:#F5B8B0;}
	.st11{fill:#F5F6F7;}
	.st12{fill:#FF85FF;}
	.st13{fill:#FF65FF;}
	.st14{fill:#F6F3EE;}
	.st15{fill:#013AD6;}
	.st16{fill-rule:evenodd;clip-rule:evenodd;fill:#142585;}
	.st17{fill-rule:evenodd;clip-rule:evenodd;fill:#E09F98;}
	.st18{fill:#142585;}
	.st19{fill:#FBFBFF;}
	.st20{fill:#0145FF;}
	.st21{opacity:0.32;}
	.st22{opacity:0.24;}
	.st23{fill:none;stroke:#FFFFFF;stroke-width:0.9459;stroke-linecap:round;stroke-linejoin:round;stroke-miterlimit:10;}
	.st24{opacity:0.28;fill:#FFFFFF;}
	.st25{opacity:0.29;fill:#2D69ED;}
	.st26{opacity:0.25;fill:#D6E3FF;}
	.st27{fill:#3075FF;}
	.st28{fill:#1D59DE;}
	.st29{fill:#A1BFFF;}
	.st30{fill:#F0F5FF;}
	.st31{fill:#3071FF;}
	.st32{fill:#C2D5FF;}
	.st33{fill:#548CFF;}
	.st34{fill:#2C67DE;}
	.st35{fill:#82AAFF;}
	.st36{fill:#275ACF;}
	.st37{fill:#D9E5FF;}
	.st38{fill:#BA4ABA;}
	.st39{fill:#BDD1FF;}
	.st40{fill:none;stroke:#292685;stroke-linecap:round;stroke-linejoin:round;stroke-miterlimit:10;}
	.st41{fill:#FFFFFF;stroke:#FFFFFF;stroke-width:1.4852;stroke-miterlimit:10;}
	.st42{fill:#ADC7FF;}
	.st43{fill:none;stroke:#FFFFFF;stroke-width:0.6164;stroke-linecap:round;stroke-linejoin:round;stroke-miterlimit:10;}
	.st44{fill:none;stroke:#FFFFFF;stroke-width:0.5688;stroke-linecap:round;stroke-linejoin:round;stroke-miterlimit:10;}
	.st45{opacity:0.33;fill:#20C0F3;}
	.st46{fill:url(#SVGID_1_);}
	.st47{fill:#D6E3FF;}
	.st48{fill:none;stroke:#BFD3FF;stroke-width:1.0825;stroke-miterlimit:10;}
	.st49{fill:#E6EDFF;}
	.st50{fill-rule:evenodd;clip-rule:evenodd;fill:#82AAFF;}
	.st51{fill:#F0F0F0;}
</style>
<g>
	<path class="st0" d="M1.9,57.3v372.6c0,0,111.7,33.8,260.6-20.1c70.1-25.4,74.7-144.8,6.7-177.4C194,196.3,79.2,177.7,1.9,11
		L1.9,57.3z"/>
	<path class="st45" d="M1.9,223.2v206.6c0,0,111.7,33.8,260.6-20.1c8.7-3.1,16.3-7.7,23-13.4C146.6,400.8,52.7,299.6,1.9,223.2z"/>
	<linearGradient id="SVGID_1_" gradientUnits="userSpaceOnUse" x1="299.9838" y1="336.9696" x2="463.0694" y2="336.9696">
		<stop  offset="0" style="stop-color:#2E6DFF"/>
		<stop  offset="1.647496e-02" style="stop-color:#2F6EFF"/>
		<stop  offset="0.6665" style="stop-color:#598CFF"/>
		<stop  offset="1" style="stop-color:#6997FF"/>
	</linearGradient>
	<path class="st46" d="M328.8,449.7c31.1-0.8,118.2-10.8,134.2-97.3v-99.9c0-17.8-16.5-31.7-33.9-27.7
		c-11.2,2.6-21.5,12.2-24.4,37.7C391,387.2,275.4,407.8,304.7,439.8C310.9,446.5,319.7,450,328.8,449.7z"/>
</g>
<g>
	<g>
		<g>
			<path class="st47" d="M91.6,255.7c2.1,0,2.1-3.2,0-3.2C89.5,252.4,89.5,255.7,91.6,255.7L91.6,255.7z"/>
		</g>
	</g>
	<g>
		<line class="st48" x1="292.1" y1="117.6" x2="244.3" y2="175.5"/>
		<line class="st48" x1="313.2" y1="116" x2="246.8" y2="196.3"/>
		<line class="st48" x1="329.2" y1="119.6" x2="253.1" y2="211.8"/>
		<line class="st48" x1="369.4" y1="181.4" x2="321.5" y2="239.3"/>
		<line class="st48" x1="362" y1="211.3" x2="346.9" y2="229.6"/>
		<line class="st48" x1="264.9" y1="131.2" x2="249.8" y2="149.4"/>
		<line class="st48" x1="366.9" y1="160.4" x2="300.6" y2="240.7"/>
		<line class="st48" x1="360.3" y1="145.4" x2="284.3" y2="237.5"/>
		<line class="st48" x1="342.8" y1="126.7" x2="262.8" y2="223.6"/>
		<line class="st48" x1="352.6" y1="134.8" x2="272.6" y2="231.7"/>
	</g>
	<g>
		<line class="st48" x1="113.8" y1="301" x2="66" y2="358.9"/>
		<line class="st48" x1="134.9" y1="299.4" x2="68.5" y2="379.7"/>
		<line class="st48" x1="150.9" y1="303" x2="74.8" y2="395.1"/>
		<line class="st48" x1="191.1" y1="364.8" x2="143.2" y2="422.7"/>
		<line class="st48" x1="183.7" y1="394.7" x2="168.6" y2="413"/>
		<line class="st48" x1="86.6" y1="314.6" x2="71.5" y2="332.8"/>
		<line class="st48" x1="188.6" y1="343.8" x2="122.3" y2="424.1"/>
		<line class="st48" x1="182" y1="328.8" x2="106" y2="420.9"/>
		<line class="st48" x1="164.5" y1="310.1" x2="84.5" y2="407"/>
		<line class="st48" x1="174.3" y1="318.2" x2="94.3" y2="415.1"/>
	</g>
	<path class="st16" d="M194.5,106.2c0,0,22.6,0.5,30.8,11.8s3.1,8.8,10.4,36.1c5.8,21.7-24.4,19.3-25.7,18.8
		C208.7,172.5,194.5,106.2,194.5,106.2z"/>
	<path class="st10" d="M124.1,300.4l-5.8,24.6c-2.2,9.6-0.7,19.6,4.4,28.1l26.8,44.7l16.6-23.1l-25-37l24.5-32.1L124.1,300.4z"/>
	<path class="st49" d="M439.7,187.8h-96.2c-3.8,0-7-3.1-7-7v-53.3c0-3.8,3.1-7,7-7h96.2c3.8,0,7,3.1,7,7v53.3
		C446.7,184.6,443.6,187.8,439.7,187.8z"/>
	<path class="st49" d="M422.4,248.2h-81.3c-2.6,0-4.7-2.1-4.7-4.7v-27.6c0-2.6,2.1-4.7,4.7-4.7h81.3c2.6,0,4.7,2.1,4.7,4.7v27.6
		C427.1,246.1,425,248.2,422.4,248.2z"/>
	<path class="st29" d="M411.2,238.1h-101c-3.1,0-5.6-2.5-5.6-5.6v-30.9c0-3.1,2.5-5.6,5.6-5.6h101c3.1,0,5.6,2.5,5.6,5.6v30.9
		C416.8,235.6,414.3,238.1,411.2,238.1z"/>
	<path class="st29" d="M426.4,181.8H309.8c-4.7,0-8.5-3.8-8.5-8.5v-64.5c0-4.7,3.8-8.5,8.5-8.5h116.5c4.7,0,8.5,3.8,8.5,8.5v64.5
		C434.8,178,431,181.8,426.4,181.8z"/>
	
		<ellipse transform="matrix(0.4454 -0.8953 0.8953 0.4454 56.8946 376.7732)" class="st3" cx="332.6" cy="142.5" rx="21.8" ry="21.8"/>
	<g>
		<g>
			<path class="st3" d="M340,203.5c-3.1,0.9-5.1,3.2-6.6,5.1c-0.4,0.6-1.3,0.6-1.8,0c-1.5-2.1-3.7-4.6-6.7-5.2c-5.7-1.1-9.7,4-8,9.7
				c1.8,7,15.6,17.9,15.6,17.9l0.3,0c0,0,13.6-10.7,15.3-17.7C349.8,207.6,346.2,201.6,340,203.5z"/>
		</g>
	</g>
	<g>
		<g>
			<path class="st31" d="M334.4,222.9C334.4,222.9,334.4,222.9,334.4,222.9c-0.5,0-1-0.3-1.1-0.8l-2.5-6.8l-1.2,3.2
				c-0.2,0.5-0.6,0.8-1.1,0.8l-4.3,0c-0.3,0-0.5-0.2-0.5-0.5l0,0c0-0.7,0.9-1.6,1.6-1.6l2.5,0l1.9-5c0.2-0.5,0.6-0.8,1.1-0.8
				c0,0,0,0,0,0c0.5,0,0.9,0.3,1.1,0.8l2.5,6.9l1-2.3c0.2-0.4,0.6-0.7,1.1-0.7l4.6,0c0.3,0,0.5,0.2,0.5,0.5l0,0
				c0,0.7-0.9,1.6-1.6,1.6l-2.9,0l-1.7,4C335.3,222.6,334.9,222.9,334.4,222.9z M327.6,217.7C327.6,217.7,327.6,217.7,327.6,217.7
				L327.6,217.7z M337.4,217.6L337.4,217.6C337.4,217.6,337.4,217.6,337.4,217.6z"/>
		</g>
	</g>
	<circle class="st13" cx="289.6" cy="98.8" r="30.8"/>
	<g>
		<g>
			<path class="st3" d="M289.6,116.4L289.6,116.4c-3.4,0-6.3-2.8-6.3-6.3V87.5c0-3.4,2.8-6.3,6.3-6.3l0,0c3.4,0,6.3,2.8,6.3,6.3
				v22.7C295.9,113.6,293.1,116.4,289.6,116.4z"/>
		</g>
	</g>
	<g>
		<g>
			<path class="st3" d="M354.4,217.7L354.4,217.7c0-2.2,1.8-4.1,4.1-4.1l46.7,0c2.2,0,4.1,1.8,4.1,4.1l0,0c0,2.2-1.8,4.1-4.1,4.1
				h-46.7C356.2,221.8,354.4,220,354.4,217.7z"/>
		</g>
	</g>
	<g>
		<g>
			<path class="st3" d="M360,151.8L360,151.8c0-2.2,1.8-4.1,4.1-4.1h46.7c2.2,0,4.1,1.8,4.1,4.1l0,0c0,2.2-1.8,4.1-4.1,4.1l-46.7,0
				C361.8,155.9,360,154,360,151.8z"/>
		</g>
	</g>
	<g>
		<g>
			<path class="st3" d="M360,133.9L360,133.9c0-2.2,1.8-4.1,4.1-4.1l59.1,0c2.2,0,4.1,1.8,4.1,4.1l0,0c0,2.2-1.8,4.1-4.1,4.1H364
				C361.8,138,360,136.2,360,133.9z"/>
		</g>
	</g>
	<g>
		<g>
			<path class="st3" d="M272,98.8L272,98.8c0-3.4,2.8-6.3,6.3-6.3H301c3.4,0,6.3,2.8,6.3,6.3l0,0c0,3.4-2.8,6.3-6.3,6.3h-22.7
				C274.9,105.1,272,102.3,272,98.8z"/>
		</g>
	</g>
	<path class="st31" d="M342.5,150.2c-0.3-2.8-2.2-4.8-3.6-5.5c-0.6-0.3-1.2-0.4-1.7-0.7c-0.3-0.1-0.6-0.3-1-0.4l0,0l0,0
		c-0.3-0.1-0.5-0.2-0.8-0.3l-0.1,0l0,0l-0.4-0.1c0,0,0,0,0,0c-0.1-0.1-0.3-0.2-0.4-0.3c0,0-0.2-0.2-0.2-0.2c0-0.1,0-0.1,0-0.2
		c0-0.5,0-1.1,0.1-1.6c0,0,0,0,0,0c0.3-0.3,0.6-0.6,0.8-1.1c0.1-0.3,0.2-0.6,0.3-1c0.9-0.1,1.1-1.1,1.2-1.9c0.1-0.6,0.3-2.1-0.7-2.1
		c0-0.1,0-0.2,0.1-0.2c0.1-0.5,0.2-1,0.2-1.5c0-0.5-0.1-1-0.3-1.4c-0.1-0.1-0.2-0.3-0.4-0.3c0.1-0.1,0.1-0.3,0.1-0.4
		c0-1.2-1.2-1.9-2-2.2c-0.7-0.3-1.5-0.4-2.3-0.4c-0.8,0-1.5,0.2-2.3,0.4c-0.8,0.3-2,0.9-2,2.2c0,0.2,0,0.3,0.1,0.4
		c-0.2,0-0.3,0.2-0.4,0.3c-0.2,0.4-0.3,0.9-0.3,1.4c0,0.5,0.1,1,0.2,1.5c0,0.1,0,0.2,0.1,0.2c-0.9,0-0.8,1.5-0.7,2.1
		c0.1,0.7,0.4,1.8,1.2,1.9c0.1,0.3,0.1,0.7,0.3,1c0.2,0.4,0.5,0.8,0.8,1.1c0,0,0,0,0,0c0,0.5,0,1.1,0.1,1.6c0,0,0,0.1,0,0.2
		c0,0-0.2,0.1-0.2,0.2c-0.1,0.1-0.3,0.2-0.4,0.3c0,0,0,0,0,0l-0.4,0.1l0,0l-0.1,0c-0.2,0.1-0.5,0.2-0.8,0.3l0,0l0,0
		c-0.3,0.1-0.6,0.3-1,0.4c-0.6,0.3-1.2,0.4-1.7,0.7c-1.4,0.7-3.3,2.6-3.6,5.5c-0.1,1.3,0.6,2.2,1.9,2.2l9.2,0.1l9.2-0.1
		C341.9,152.4,342.7,151.6,342.5,150.2z"/>
	<path class="st7" d="M159.5,351c0,0-26.4,30.3-31,69.9c-4.6,39.5,3.3,79.1,3.3,79.1H240L237,365.2L159.5,351z"/>
	<path class="st5" d="M229.2,348.7c-32.4,36.9-12.6,59.6-16,88c-4.7,38.4-11.1,32.7-4.2,63.3H240L237,365.2L229.2,348.7z"/>
	<path class="st16" d="M145.1,160.7c-0.4,0.3,14.9,44.5,40,36.1c25.1-8.5-0.1-59.8-0.1-59.8L145.1,160.7z"/>
	<path class="st50" d="M175.6,235.4l-6.2,60.2c0,0-39.7-9.3-39.9-10.6c-8.6-72.9,40.7-72.2,40.7-72.2L175.6,235.4z"/>
	<path class="st10" d="M206,183.4c0,0-2.1,20-3.8,36.5c-0.5,4.4-3.3,8.2-7.3,10c-4.1,1.8-8.8,1.2-12.3-1.5c-1.2-0.9-2.3-1.7-3.3-2.5
		c-4.8-3.7-7.1-9.8-5.9-15.7c3.2-15.2,9-43,9-43L206,183.4L206,183.4z"/>
	<path class="st17" d="M205,193.7c0,0-6.6,0.9-12.8-4.2c0,0,6.5,10.3,11.9,12.3L205,193.7z"/>
	<path class="st10" d="M164.2,143.4c-1.6-8.2,3.8-16.2,12-17.8c8.8-1.7,19.9-3.8,28.6-5.5c8.2-1.6,14,4.5,17.8,12
		c4.6,9.2,7.2,27,8,41.2c0.4,8.4-4.7,16.7-12.8,19.1c-14,4.2-43.4-2.7-45-10.9C170.4,169.4,166.5,155.5,164.2,143.4L164.2,143.4z"/>
	<path class="st16" d="M139.5,138.2c0,0,35.3-54.8,78.5-21c0,0,5.5,51.9-71.1,50.8C125.5,167.7,139.5,138.2,139.5,138.2z"/>
	<path class="st10" d="M208.1,260.1l-2.6-27.8l88.5,49.3l66.7-14.7l14,11.8c0,0-41.6,19.5-67.1,29.3c-7.9,3-16.7,2.7-24.4-0.8
		c-17.4-8.1-47.5-22.1-47.5-22.1L208.1,260.1L208.1,260.1z"/>
	<path class="st7" d="M246.9,299.3l3,1.8c0,0,15.7-37.5,14.8-38.5c-20.5-23-36.9-33.6-49.7-37.7c-3.9-1.2-7.7-2.7-11.4-4.4
		c-10-4.6-24.9-1.4-30-6.4c-1.3-1.3-0.3-3.9-0.3-3.9l-13.6,4c0,0-10,4.3-11.3,14.3c-4.1,31-2.7,40.6,4.6,71.5
		c2.6,11.3,4.7,48.6,1.4,57.7c-9,25.5,80.2,16.2,81.1,4.7c0,0,6.4-16.2,7.6-30.4C244.1,320.8,245.7,309.1,246.9,299.3z"/>
	<path class="st10" d="M374.7,278.7c0,0,8.6-8.7,16.5-17.3c8.7-9.4,7.4-14.7-2.6-19.3c-2.8-1.3-11.1,1.8-11.1,1.8l-10.9,13.9
		c0,0-14.6,14.1-7.8,21.1C365.5,285.8,374.7,278.7,374.7,278.7z"/>
	<path class="st10" d="M389.4,245.7c0,0,13.4-9.1,10.9-15c-2.4-5.8-22.8,13.1-22.8,13.1l6.1,9.4L389.4,245.7z"/>
	<path class="st16" d="M175.9,198.2c0,0,31.5-2.3,21.3-51.1s-33.7,20.2-33.7,20.2L175.9,198.2z"/>
	<path class="st10" d="M208.5,166.9c0.1,6.8-5.4,12.4-12.2,12.5c-6.8,0.1-12.4-5.4-12.5-12.2c-0.1-6.8,5.4-12.4,12.2-12.5
		C202.9,154.6,208.5,160.1,208.5,166.9z"/>
	<path class="st5" d="M246.9,299.3c-1.2,9.8-2.8,21.5-3.7,32.5c-1.2,14.3-6.2,33.3-6.2,33.3c-0.3,3.8-8.3,5-22.5,6.3
		c2.8-13,16.2-12.8,10.9-39.8c-2.6-13.1,1.2-28,0.7-46.9L246.9,299.3z"/>
	<path class="st51" d="M223,226.5l-11.3-8.9l-50.2-7.9c0,0,5.9,22,27.9,17.4C202.1,224.4,223,226.5,223,226.5z"/>
	<path class="st16" d="M158.9,155.7c4.1-15.5-12-28.8-26.2-21.5c-8.6,4.4-16.1,12.1-16.6,25.6c-1.2,31.9-42.6,38.9-24.7,75.9
		c15.1,31-39.2,36.8,2,79.8c37.6,39.3,78.7-14,67.5-35.7c-11.2-21.8-22.2-35.1-7.9-49.5c21.8-22,15.2-35.6,5.1-50.2
		C153.4,173.3,156.5,165.1,158.9,155.7z"/>
	<path class="st16" d="M118.2,154.2c0,0-9.3,19.6-19.1,26.4c-9.8,6.7-4,29.6-4,29.6l1.6-11.1c0,0-2.1-9.4,2.8-14
		s16.5-10.7,19.5-19.1C122.2,157.5,118.2,154.2,118.2,154.2z"/>
	<path class="st16" d="M181,133.3c0,0,7.2-6.6,18.6,23.4c3.1,8.2-9.6,11.5-2.7,16.4c6.9,4.9,12.6-20.7,6.5-29.1
		c-6.1-8.4-11.2-15.4-11.3-22.5C192,114.4,181,133.3,181,133.3z"/>
	<g class="st21">
		<path class="st3" d="M72,243.7l-17.9-5.6c-1.2-0.4-1.8-1.6-1.5-2.8l5.6-17.9c0.4-1.2,1.6-1.8,2.8-1.5l17.9,5.6
			c1.2,0.4,1.8,1.6,1.5,2.8l-5.6,17.9C74.4,243.5,73.2,244.1,72,243.7z M57.6,234.6l13.7,4.3l4.3-13.7l-13.7-4.3L57.6,234.6z"/>
	</g>
	<g class="st22">
		<path class="st3" d="M87.4,395.1c-6.8,0-12.4-5.6-12.4-12.4c0-6.8,5.6-12.4,12.4-12.4c6.8,0,12.4,5.6,12.4,12.4
			C99.8,389.6,94.2,395.1,87.4,395.1z M87.4,375.5c-4,0-7.3,3.3-7.3,7.3c0,4,3.3,7.3,7.3,7.3c4,0,7.3-3.3,7.3-7.3
			C94.6,378.7,91.4,375.5,87.4,375.5z"/>
	</g>
	<g class="st22">
		<path class="st3" d="M404.9,412.7c-8.4,0-15.3-6.9-15.3-15.3c0-8.4,6.9-15.3,15.3-15.3s15.3,6.9,15.3,15.3
			C420.2,405.9,413.4,412.7,404.9,412.7z M404.9,388.5c-4.9,0-9,4-9,8.9c0,4.9,4,9,9,9c4.9,0,8.9-4,8.9-9
			C413.9,392.5,409.8,388.5,404.9,388.5z"/>
	</g>
	<path class="st23" d="M246.6,374.8c3.5,0,72.3,0,72.3,0"/>
	<path class="st23" d="M64.1,432.9c3.5,0,48,0,48,0"/>
	<path class="st23" d="M363.7,438.7c3.5,0,48,0,48,0"/>
	<path class="st23" d="M55.8,186.4c3.5,0,48,0,48,0"/>
	<path class="st24" d="M71.7,347.9c0,2.5-2,4.5-4.5,4.5c-2.5,0-4.5-2-4.5-4.5s2-4.5,4.5-4.5C69.7,343.4,71.7,345.4,71.7,347.9z"/>
	<path class="st24" d="M260.6,342.6c0,2.5-2,4.5-4.5,4.5c-2.5,0-4.5-2-4.5-4.5c0-2.5,2-4.5,4.5-4.5
		C258.5,338,260.6,340.1,260.6,342.6z"/>
	<path class="st24" d="M434,324.6c0,2.5-2,4.5-4.5,4.5c-2.5,0-4.5-2-4.5-4.5c0-2.5,2-4.5,4.5-4.5C432,320.1,434,322.1,434,324.6z"/>
	<path class="st24" d="M432.6,424.9c0,2.5-2,4.5-4.5,4.5s-4.5-2-4.5-4.5s2-4.5,4.5-4.5S432.6,422.4,432.6,424.9z"/>
	<path class="st24" d="M62.1,138.8c0,2.5-2,4.5-4.5,4.5s-4.5-2-4.5-4.5c0-2.5,2-4.5,4.5-4.5S62.1,136.3,62.1,138.8z"/>
</g>
</svg>
